<svg width="309" height="306" viewBox="0 0 309 306" fill="none" xmlns="http://www.w3.org/2000/svg">
<path d="M201.403 30.3979L226.415 21.6927C228.238 26.9216 228.376 32.5901 226.812 37.9019C225.247 43.2137 222.058 47.9019 217.692 51.308C213.326 54.714 208.003 56.6668 202.47 56.8919C196.937 57.117 191.473 55.6032 186.844 52.5631C182.216 49.523 178.656 45.1094 176.665 39.9423C174.674 34.7751 174.352 29.1141 175.744 23.7545C177.136 18.3948 180.172 13.6058 184.425 10.0602C188.678 6.51454 193.936 4.39047 199.458 3.98633L201.403 30.3979Z" fill="#F5F5F5"/>
<path d="M204.948 3.05151L205.52 23.5834L224.43 16.2708C224.43 16.2708 219.472 5.62136 204.948 3.05151Z" fill="#EBEBEB"/>
<path d="M25.4015 249.205V229.07C29.3658 229.07 33.2419 230.24 36.5445 232.432C39.847 234.625 42.429 237.744 43.9671 241.398C45.5051 245.051 45.9307 249.078 45.1907 252.972C44.4506 256.867 42.5778 260.456 39.8068 263.291C37.0357 266.126 33.4898 268.08 29.6131 268.909C25.7364 269.737 21.7014 269.404 18.0136 267.949C14.3258 266.495 11.1492 263.985 8.88164 260.733C6.61412 257.481 5.35658 253.633 5.26654 249.669L25.4015 249.205Z" fill="#F5F5F5"/>
<path d="M20.4905 243.777L0.348817 244.235C0.346966 238.852 2.38553 233.669 6.05362 229.73C9.81238 225.976 14.8698 223.808 20.1811 223.676L20.4905 243.777Z" fill="#F5F5F5"/>
<path d="M278.767 260.791C281.188 259.654 283.909 259.324 286.531 259.849C287.943 260.078 289.41 260.522 290.372 261.558C291.334 262.594 291.509 264.484 290.372 265.392C289.662 265.869 288.809 266.086 287.957 266.005C285.905 266.005 283.624 265.621 281.983 266.852C281.048 267.559 280.429 268.729 279.292 269.079C278.731 269.208 278.144 269.151 277.618 268.917C277.093 268.683 276.658 268.284 276.379 267.781C275.84 266.744 275.722 265.539 276.049 264.417C276.192 263.644 276.511 262.914 276.983 262.285C277.454 261.656 278.065 261.144 278.767 260.791Z" fill="#EBEBEB"/>
<path d="M273.345 250.342C274.785 252.407 277.597 251.688 278.895 250.463C280.193 249.239 280.745 247.382 281.25 245.64C282.393 241.664 283.544 237.493 282.696 233.443C282.49 232.215 281.95 231.067 281.135 230.126C280.722 229.661 280.194 229.313 279.603 229.117C279.013 228.92 278.381 228.884 277.772 229.01C276.352 229.386 275.478 230.772 274.838 232.091C272.964 235.985 271.983 240.248 271.966 244.57C271.966 246.588 272.195 248.687 273.311 250.342" fill="#EBEBEB"/>
<path d="M269.349 253.302C270.09 252.333 270.583 251.198 270.787 249.996C270.991 248.793 270.899 247.559 270.52 246.4C269.727 244.082 268.312 242.027 266.429 240.46C264.29 238.56 261.802 237.093 259.103 236.141C258.057 235.72 256.933 235.53 255.807 235.582C255.247 235.623 254.705 235.799 254.228 236.096C253.751 236.392 253.353 236.8 253.069 237.284C252.295 238.758 253.035 240.541 253.836 241.994C255.245 244.56 256.854 247.011 258.646 249.326C260.092 251.183 261.74 253.02 263.94 253.854C266.14 254.688 268.421 254.601 269.584 253.074" fill="#EBEBEB"/>
<path d="M273.244 281.463C273.322 281.155 273.367 280.839 273.379 280.521C273.439 279.849 273.527 278.987 273.628 277.965C273.753 276.705 273.944 275.452 274.199 274.211C274.529 272.702 274.979 271.222 275.545 269.784C276.106 268.35 276.867 267.003 277.805 265.782C278.57 264.786 279.547 263.973 280.664 263.4C281.422 263.024 282.235 262.772 283.073 262.653C283.388 262.642 283.702 262.597 284.008 262.519C283.69 262.482 283.37 262.482 283.053 262.519C282.182 262.589 281.332 262.817 280.543 263.192C279.367 263.747 278.336 264.566 277.529 265.587C276.549 266.825 275.76 268.204 275.188 269.677C274.61 271.135 274.16 272.641 273.843 274.177C273.602 275.431 273.436 276.698 273.345 277.972C273.264 279.062 273.231 279.943 273.217 280.548C273.194 280.853 273.203 281.16 273.244 281.463Z" fill="#E0E0E0"/>
<path d="M273.419 279.491C273.439 279.348 273.439 279.203 273.419 279.061V277.816C273.419 276.733 273.419 275.172 273.473 273.241C273.567 269.387 273.897 265.236 274.542 259.383C275.148 253.88 275.962 247.469 276.823 243.305C277.011 242.363 277.193 241.508 277.368 240.762C277.543 240.015 277.677 239.369 277.819 238.844C277.96 238.32 278.034 237.956 278.108 237.64C278.149 237.5 278.174 237.356 278.182 237.21C278.117 237.338 278.067 237.473 278.034 237.613L277.671 238.811C277.509 239.322 277.348 239.968 277.159 240.708C276.971 241.448 276.756 242.302 276.554 243.251C275.501 248.168 274.711 253.138 274.186 258.139C273.513 264.005 273.251 269.346 273.224 273.215C273.224 275.145 273.224 276.713 273.291 277.789C273.325 278.294 273.352 278.704 273.372 279.034C273.37 279.187 273.386 279.341 273.419 279.491Z" fill="#E0E0E0"/>
<path d="M273.446 269.192C273.483 268.76 273.483 268.325 273.446 267.893C273.399 267.059 273.284 265.875 273.049 264.375C272.765 262.644 272.383 260.93 271.905 259.242C271.34 257.174 270.623 255.15 269.759 253.187C268.27 249.567 266.136 246.246 263.463 243.386C262.991 242.887 262.485 242.422 261.949 241.993C261.727 241.798 261.525 241.61 261.317 241.455L260.745 241.058C260.396 240.808 260.029 240.583 259.648 240.385C260.908 241.377 262.106 242.447 263.234 243.587C265.822 246.47 267.899 249.774 269.376 253.356C270.227 255.311 270.948 257.32 271.535 259.37C272.094 261.254 272.47 262.989 272.753 264.449C273.036 265.909 273.177 267.14 273.271 267.934C273.297 268.357 273.355 268.778 273.446 269.192Z" fill="#E0E0E0"/>
<path d="M263.489 287.363L264.525 301.504H282.689L283.719 287.363H263.489Z" fill="#E0E0E0"/>
<path d="M285.885 281.787H261.734V287.357H285.885V281.787Z" fill="#E0E0E0"/>
<path d="M261.734 300.959V302.506H262.87H285.488V300.959H261.734Z" fill="#EBEBEB"/>
<path d="M263.98 305.223L262.87 302.506H284.627L283.328 305.223H263.98Z" fill="#E0E0E0"/>
<path d="M283.382 291.985C283.382 291.985 283.382 292.032 283.301 292.113L283.026 292.476L281.969 293.822L281.922 293.882L281.875 293.822L279.279 290.222H279.44L276.884 293.848L276.803 293.963L276.709 293.855L273.675 290.243H273.85L273.681 290.451L270.99 293.855L270.896 293.97L270.816 293.848L268.252 290.222H268.4L265.252 293.822L265.191 293.882L265.151 293.808L264.162 292.153L263.907 291.709C263.875 291.661 263.85 291.609 263.833 291.554C263.833 291.554 263.873 291.595 263.94 291.696L264.216 292.119L265.252 293.748H265.158C265.965 292.799 267.015 291.561 268.259 290.108L268.34 290.014L268.407 290.115L270.99 293.721H270.816L273.506 290.31C273.56 290.236 273.621 290.169 273.675 290.101L273.762 289.994L273.85 290.095L276.877 293.714H276.709L279.292 290.108L279.366 290.007L279.44 290.108C280.463 291.575 281.337 292.799 281.983 293.748H281.895L282.992 292.402L283.288 292.059L283.382 291.985Z" fill="#F5F5F5"/>
<path d="M283.974 287.269C283.974 287.33 279.42 287.384 273.809 287.384C268.199 287.384 263.644 287.33 263.644 287.269C263.644 287.209 268.192 287.155 273.809 287.155C279.427 287.155 283.974 287.209 283.974 287.269Z" fill="#F5F5F5"/>
<path d="M284.889 302.66C284.889 302.721 279.945 302.775 273.843 302.775C267.741 302.775 262.797 302.721 262.797 302.66C262.797 302.6 267.741 302.546 273.843 302.546C279.945 302.546 284.889 302.6 284.889 302.66Z" fill="#F5F5F5"/>
<path d="M256.715 129.761C256.657 124.755 258.084 119.844 260.814 115.648C263.545 111.453 267.458 108.16 272.059 106.186C276.66 104.212 281.742 103.645 286.665 104.557C291.587 105.469 296.129 107.82 299.717 111.311C303.305 114.802 305.778 119.278 306.824 124.174C307.871 129.07 307.443 134.166 305.595 138.819C303.747 143.472 300.563 147.473 296.443 150.317C292.323 153.162 287.453 154.722 282.447 154.801C275.717 154.885 269.227 152.296 264.403 147.602C259.579 142.908 256.814 136.492 256.715 129.761ZM294.153 129.156C294.102 126.764 293.344 124.441 291.974 122.48C290.604 120.518 288.685 119.007 286.457 118.136C284.229 117.264 281.793 117.072 279.456 117.584C277.119 118.096 274.986 119.288 273.326 121.011C271.666 122.734 270.554 124.909 270.129 127.263C269.705 129.618 269.987 132.045 270.94 134.239C271.894 136.433 273.475 138.296 275.486 139.591C277.497 140.887 279.847 141.559 282.239 141.521C285.457 141.459 288.52 140.122 290.754 137.803C292.988 135.485 294.21 132.375 294.153 129.156Z" fill="#F5F5F5"/>
<path d="M256.715 129.761C256.598 123.035 259.152 116.536 263.818 111.69C268.484 106.844 274.88 104.045 281.606 103.907L281.821 117.187C278.632 117.293 275.611 118.648 273.411 120.96C271.211 123.271 270.006 126.354 270.058 129.545C270.109 132.736 271.411 135.78 273.685 138.019C275.958 140.259 279.02 141.516 282.212 141.52L282.42 154.8C275.694 154.877 269.212 152.285 264.394 147.592C259.575 142.898 256.814 136.486 256.715 129.761Z" fill="#E0E0E0"/>
<path d="M279.359 101.863C283.21 101.768 287.041 102.443 290.627 103.849C294.213 105.254 297.482 107.361 300.243 110.047C303.004 112.733 305.201 115.943 306.705 119.489C308.208 123.035 308.989 126.845 309 130.697L293.527 130.946C293.399 123.095 287.425 118.164 279.615 118.285L279.359 101.863Z" fill="#EBEBEB"/>
<path d="M18.5127 199.644L142.256 305.156H179.101L283.376 199.644C283.376 199.644 175.361 173.065 18.5127 199.644Z" fill="#1162DC"/>
<path opacity="0.8" d="M18.5127 199.644L142.256 305.156H179.101L283.376 199.644C283.376 199.644 175.361 173.065 18.5127 199.644Z" fill="white"/>
<path d="M18.5127 31.837V200.021C18.5127 200.021 167.369 173.448 283.382 200.021V31.837C192.926 47.1283 104.683 48.0836 18.5127 31.837Z" fill="white"/>
<path d="M18.5127 31.8369L23.4506 32.6845L29.5052 33.734C31.9069 34.1444 34.692 34.6691 37.8404 35.0795L48.3687 36.6537C49.3307 36.7949 50.3196 36.9564 51.3287 37.0842L54.4301 37.4744L61.0094 38.2951C63.29 38.571 65.6513 38.9006 68.1 39.163L75.6885 39.9299L83.7613 40.7372L92.3185 41.4099C95.2517 41.6184 98.2521 41.901 101.333 42.0826L110.812 42.5939L115.71 42.8563C117.364 42.937 119.033 42.9639 120.721 43.0245L131.061 43.3407C145.128 43.5627 160.312 43.6299 176.437 42.9168C208.729 41.7395 244.787 38.1135 283.355 31.6754H283.544V31.8638C283.544 83.5635 283.544 140.396 283.544 200.048V200.263L283.328 200.223C271.031 197.444 258.72 195.312 246.503 193.63C234.286 191.948 222.15 190.791 210.175 189.97C204.181 189.519 198.227 189.297 192.314 188.988L183.481 188.699C180.548 188.591 177.628 188.584 174.735 188.517C163.097 188.356 151.654 188.403 140.426 188.739C129.198 189.075 118.226 189.573 107.462 190.246C96.698 190.919 86.2572 191.8 76.0585 192.782C65.8598 193.764 55.9572 194.881 46.3572 196.146C36.7573 197.411 27.4601 198.696 18.5261 200.223H18.3647V200.054C18.4521 97.2402 18.506 33.0074 18.506 31.8705C18.506 32.994 18.5598 97.2268 18.6405 200.054L18.4791 199.92C27.4264 198.386 36.7169 197.061 46.3169 195.816C55.9168 194.572 65.8262 193.462 76.0316 192.453C86.237 191.443 96.7048 190.609 107.442 189.91C118.178 189.21 129.178 188.712 140.406 188.389C151.634 188.066 163.077 187.999 174.715 188.161C177.628 188.221 180.548 188.234 183.461 188.335L192.294 188.631C198.207 188.914 204.168 189.156 210.162 189.607C222.15 190.428 234.299 191.558 246.523 193.26C258.747 194.962 271.071 197.081 283.382 199.866L283.167 200.034C283.167 140.396 283.167 83.5635 283.167 31.8503L283.355 32.0118C244.774 38.4431 208.682 42.049 176.39 43.2061C160.245 43.9125 145.068 43.8317 131.001 43.5963L120.654 43.2734C118.966 43.2128 117.29 43.1792 115.642 43.0985L110.738 42.8294L101.259 42.3114C98.1781 42.1365 95.2046 41.8539 92.2445 41.6386L83.6873 40.9659L75.6145 40.1452L68.0193 39.3648C65.5706 39.0957 63.2093 38.766 60.9354 38.4902L54.3493 37.656L51.248 37.2591C50.2389 37.1246 49.2298 36.9631 48.288 36.8218L37.8269 35.2073C34.6651 34.7633 31.9069 34.2318 29.5119 33.8147L23.4573 32.7316L18.5127 31.8369Z" fill="#1162DC"/>
<path d="M268.004 56.6141C268.004 56.5737 218.255 65.3597 156.329 65.4673C94.3704 65.844 44.5072 57.3945 44.5409 57.3945C44.5005 57.1523 94.3569 65.5211 156.336 65.1511C218.221 65.0637 268.004 56.3719 268.004 56.6141Z" fill="#E0E0E0"/>
<path d="M267.331 68.2394C267.331 68.2394 217.878 75.3434 156.289 75.4174C94.6866 75.7269 45.1194 68.8986 45.1463 68.9121C45.106 68.6968 94.6799 75.4309 156.289 75.1214C217.858 75.034 267.331 68.0241 267.331 68.2394Z" fill="#E0E0E0"/>
<path d="M266.658 79.8636C266.658 79.8636 217.488 85.2993 156.262 85.3666C95.0431 85.6088 45.7383 80.422 45.7719 80.4086C45.7249 80.2202 95.0095 85.3128 156.262 85.0706C217.468 84.9966 266.658 79.6753 266.658 79.8636Z" fill="#E0E0E0"/>
<path d="M265.945 91.4888C265.945 91.5292 217.064 95.2629 156.201 95.3167C95.3189 95.4916 46.3236 91.953 46.3572 91.9059C46.3168 91.7445 95.3055 95.1956 156.201 95.0207C217.077 94.9602 265.985 91.3005 265.945 91.4888Z" fill="#E0E0E0"/>
<path d="M265.272 103.114C265.272 103.188 216.68 105.226 156.175 105.267C95.6688 105.307 46.9492 103.471 46.9761 103.41C47.0031 103.349 95.6418 105.085 156.175 104.978C216.707 104.87 265.313 102.979 265.272 103.114Z" fill="#E0E0E0"/>
<path d="M264.593 114.739C264.593 114.84 216.29 115.189 156.148 115.216C96.0051 115.243 47.5681 114.994 47.595 114.9C47.622 114.806 95.9715 114.961 156.148 114.9C216.324 114.84 264.64 114.638 264.593 114.739Z" fill="#E0E0E0"/>
<path d="M263.92 126.369C263.92 126.49 215.907 125.152 156.121 125.165C96.3348 125.178 48.1871 126.511 48.2207 126.396C48.2544 126.282 96.3012 124.842 156.121 124.869C215.94 124.896 263.967 126.282 263.92 126.369Z" fill="#E0E0E0"/>
<path d="M263.241 137.996C263.241 138.15 215.517 135.11 156.094 135.116C96.6711 135.123 48.8127 138.036 48.8396 137.888C48.7993 137.841 96.6039 134.719 156.094 134.82C215.53 134.807 263.294 137.949 263.241 137.996Z" fill="#E0E0E0"/>
<path d="M262.568 149.619C262.568 149.8 215.127 145.071 156.06 145.064C96.9739 144.903 49.4317 149.558 49.4586 149.383C49.4182 149.383 96.9672 144.6 156.06 144.768C215.14 144.768 262.622 149.599 262.568 149.619Z" fill="#E0E0E0"/>
<path d="M261.888 161.265C261.888 161.473 214.743 155.048 156.033 155.028C97.3103 154.8 50.0506 161.083 50.0775 160.888C50.0371 160.888 97.2968 154.497 156.033 154.732C191.419 154.739 226.771 156.92 261.888 161.265Z" fill="#E0E0E0"/>
<path d="M261.209 172.877C261.209 173.119 214.353 164.999 156.006 164.965C97.6399 164.669 50.6762 172.601 50.7031 172.365C50.6627 172.365 97.6264 164.36 156.006 164.656C191.232 164.703 226.403 167.451 261.209 172.877Z" fill="#E0E0E0"/>
<path d="M264.936 108.859L264.108 108.415C263.319 107.947 262.496 107.538 261.646 107.19C258.334 105.79 254.798 104.993 251.205 104.836C248.55 104.732 245.891 104.892 243.267 105.313C240.122 105.828 237.053 106.732 234.131 108.004C233.337 108.334 232.584 108.765 231.79 109.141C230.996 109.518 230.263 110.036 229.483 110.487C228.702 110.938 227.989 111.516 227.242 112.054C226.516 112.627 225.841 113.262 225.224 113.951C222.802 116.743 221.033 120.134 219.371 123.679C217.71 127.224 216.189 131.012 214.548 134.9C212.928 138.973 211.008 142.919 208.803 146.707C207.614 148.715 206.126 150.53 204.39 152.089C203.451 152.903 202.382 153.554 201.228 154.013C200.629 154.221 200.05 154.484 199.425 154.645C198.808 154.839 198.181 155.001 197.548 155.13C194.942 155.692 192.267 155.867 189.61 155.648C186.887 155.426 184.208 154.826 181.651 153.865C179.087 152.91 176.717 151.499 174.655 149.701C174.403 149.492 174.165 149.267 173.942 149.028L173.269 148.295C172.872 147.77 172.428 147.272 172.071 146.727C171.322 145.654 170.647 144.53 170.053 143.363C167.685 138.728 166.185 133.737 164.712 128.684C163.238 123.632 161.913 118.445 160.117 113.299C159.229 110.685 158.149 108.139 156.888 105.683C155.586 103.099 153.821 100.776 151.681 98.8283C149.206 96.8706 146.28 95.5639 143.171 95.0273L142.579 94.9062L141.98 94.8255L140.782 94.664C139.975 94.6169 139.168 94.5228 138.367 94.5429C136.767 94.5204 135.168 94.6442 133.591 94.9129C132.055 95.1791 130.546 95.5844 129.084 96.1239C128.727 96.2651 128.411 96.4199 128.034 96.5679L127.509 96.7899L127.018 97.0455L126.029 97.5703L125.101 98.1623C122.784 99.7271 120.852 101.797 119.45 104.217C116.685 108.886 115.696 114.072 114.182 119.017C113.467 121.499 112.498 123.899 111.29 126.182C110.037 128.495 108.357 130.549 106.338 132.236C104.252 133.983 101.806 135.246 99.1737 135.936C96.5319 136.61 93.7516 136.505 91.1682 135.634C88.7454 134.789 86.5543 133.388 84.7705 131.543C83.0987 129.805 81.7662 127.77 80.8417 125.543C78.9984 121.217 78.4333 116.73 77.9085 112.492C77.3838 108.253 77.1349 104.129 76.7447 100.228C76.4091 96.4821 75.852 92.7599 75.0763 89.0803C74.3466 85.7063 73.2573 82.4203 71.827 79.2786C69.291 73.8961 65.6646 69.099 61.1776 65.1915C58.2127 62.5666 54.8111 60.481 51.1269 59.0292C50.4946 58.8005 49.9429 58.5785 49.4586 58.417L48.2342 58.0807L47.2385 57.7914L48.2342 58.047L49.4653 58.3699C49.9497 58.5247 50.508 58.7399 51.1471 58.9687C54.8449 60.4056 58.2607 62.4824 61.2382 65.104C65.7666 69.0161 69.4321 73.8271 72.0019 79.2315C73.4474 82.3798 74.5481 85.6751 75.2849 89.0601C76.0743 92.7454 76.6427 96.4745 76.9869 100.228C77.3838 104.136 77.6596 108.233 78.1709 112.478C78.6822 116.723 79.2742 121.183 81.104 125.455C82.0189 127.649 83.3328 129.654 84.979 131.368C86.7319 133.186 88.8861 134.569 91.2691 135.405C93.7908 136.26 96.5071 136.363 99.0863 135.701C101.668 135.023 104.067 133.78 106.11 132.061C108.103 130.393 109.759 128.359 110.987 126.067C112.187 123.801 113.148 121.415 113.853 118.95C115.36 114.046 116.342 108.859 119.134 104.109C120.553 101.64 122.515 99.5254 124.872 97.9268L125.814 97.3281L126.823 96.7899L127.328 96.5275L127.859 96.2988L128.929 95.848C131.944 94.7414 135.136 94.1987 138.347 94.2469C139.168 94.2469 139.989 94.3209 140.803 94.368C141.213 94.4151 141.617 94.4757 142.027 94.5295L142.632 94.6169L143.238 94.738C146.411 95.2815 149.396 96.6165 151.916 98.6197C154.09 100.588 155.881 102.942 157.197 105.562C158.462 108.03 159.546 110.586 160.44 113.211C162.236 118.378 163.575 123.558 165.028 128.617C166.481 133.676 167.995 138.647 170.342 143.249C170.938 144.4 171.612 145.508 172.361 146.566C172.717 147.111 173.154 147.602 173.545 148.113L174.217 148.833C174.427 149.071 174.652 149.296 174.89 149.505C176.921 151.272 179.252 152.66 181.772 153.602C184.302 154.563 186.954 155.163 189.65 155.385C192.276 155.6 194.919 155.427 197.494 154.874C199.983 154.309 202.432 153.488 204.221 151.907C205.939 150.36 207.411 148.562 208.587 146.572C210.796 142.808 212.721 138.884 214.346 134.833C215.994 130.958 217.521 127.177 219.19 123.619C220.858 120.06 222.648 116.669 225.103 113.85C225.721 113.153 226.396 112.51 227.121 111.926C227.875 111.384 228.628 110.859 229.382 110.352C230.169 109.902 230.922 109.417 231.709 109.007C232.497 108.596 233.27 108.199 234.071 107.87C237.011 106.595 240.097 105.692 243.26 105.179C245.898 104.762 248.571 104.611 251.239 104.728C254.841 104.899 258.383 105.72 261.693 107.15C262.54 107.505 263.358 107.923 264.142 108.401C264.64 108.691 264.936 108.859 264.936 108.859Z" fill="#455A64"/>
<path d="M192.038 156.905C192.025 157.261 191.942 157.611 191.793 157.934C191.644 158.258 191.432 158.548 191.17 158.789C190.907 159.03 190.6 159.216 190.265 159.338C189.931 159.459 189.575 159.513 189.219 159.495C188.494 159.471 187.806 159.164 187.304 158.64C186.801 158.116 186.523 157.416 186.528 156.69C186.541 156.334 186.623 155.983 186.772 155.659C186.921 155.335 187.132 155.044 187.395 154.802C187.657 154.56 187.965 154.373 188.3 154.252C188.635 154.13 188.991 154.076 189.347 154.093C190.075 154.114 190.766 154.421 191.269 154.948C191.773 155.474 192.049 156.177 192.038 156.905Z" fill="#455A64"/>
<path d="M140.675 94.4024C140.674 94.7531 140.603 95.1 140.467 95.4231C140.331 95.7462 140.132 96.039 139.881 96.2844C139.631 96.5298 139.334 96.723 139.009 96.8526C138.683 96.9822 138.334 97.0458 137.984 97.0396C137.267 97.0362 136.579 96.7531 136.068 96.2505C135.557 95.7479 135.262 95.0655 135.246 94.3486C135.246 93.9977 135.316 93.6503 135.452 93.3268C135.587 93.0033 135.787 92.7102 136.037 92.4646C136.288 92.219 136.585 92.0259 136.911 91.8966C137.237 91.7672 137.586 91.7043 137.937 91.7115C138.654 91.7131 139.343 91.9957 139.855 92.4986C140.366 93.0016 140.661 93.685 140.675 94.4024Z" fill="#455A64"/>
<path d="M252.854 103.127C252.786 103.955 252.413 104.729 251.808 105.3C251.203 105.87 250.408 106.196 249.577 106.215C249.188 106.24 248.798 106.184 248.432 106.049C248.066 105.914 247.733 105.704 247.454 105.432C247.175 105.159 246.956 104.832 246.812 104.469C246.668 104.107 246.601 103.718 246.617 103.329C246.687 102.502 247.059 101.731 247.662 101.162C248.266 100.594 249.058 100.268 249.887 100.247C250.277 100.214 250.67 100.265 251.04 100.397C251.409 100.528 251.745 100.738 252.027 101.011C252.308 101.284 252.527 101.614 252.67 101.979C252.813 102.344 252.875 102.735 252.854 103.127Z" fill="#455A64"/>
<path d="M99.7456 135.566C99.7801 136.135 99.644 136.701 99.3547 137.193C99.0654 137.684 98.6361 138.078 98.1217 138.324C97.6073 138.57 97.0311 138.657 96.467 138.574C95.9028 138.491 95.3763 138.242 94.9548 137.857C94.5333 137.473 94.2359 136.972 94.1008 136.418C93.9656 135.864 93.9988 135.283 94.1961 134.748C94.3934 134.212 94.7458 133.748 95.2083 133.415C95.6708 133.081 96.2223 132.893 96.7923 132.875C97.5407 132.84 98.2723 133.104 98.8261 133.609C99.38 134.113 99.7107 134.817 99.7456 135.566Z" fill="#455A64"/>
<path d="M37.0802 56.3188C36.2897 56.3668 35.4964 56.2988 34.7256 56.117C33.9125 56.0431 33.1134 55.8574 32.3509 55.5653C33.1414 55.5132 33.9353 55.5812 34.7055 55.7671C35.5186 55.8411 36.3177 56.0267 37.0802 56.3188Z" fill="#1162DC"/>
<path d="M37.7463 68.0108C36.9643 68.0928 36.1744 68.052 35.4051 67.8897C34.599 67.8416 33.8038 67.6785 33.0438 67.4053C33.8266 67.3365 34.6152 67.3818 35.3849 67.5399C36.1895 67.5912 36.9836 67.7496 37.7463 68.0108Z" fill="#1162DC"/>
<path d="M38.4122 79.7291C37.638 79.8273 36.8534 79.8091 36.0845 79.6753C35.2861 79.6542 34.495 79.516 33.7367 79.2649C34.5114 79.1709 35.2956 79.1913 36.0644 79.3255C36.8621 79.3482 37.6527 79.4841 38.4122 79.7291Z" fill="#1162DC"/>
<path d="M39.0715 91.4415C38.3048 91.5623 37.524 91.5623 36.7573 91.4415C35.9673 91.4455 35.1809 91.3344 34.4229 91.1118C35.1896 90.991 35.9705 90.991 36.7371 91.1118C37.5269 91.1117 38.3127 91.2227 39.0715 91.4415Z" fill="#1162DC"/>
<path d="M39.7375 103.16C38.9793 103.304 38.2038 103.334 37.4368 103.248C36.6548 103.277 35.8727 103.191 35.1158 102.992C35.873 102.84 36.6495 102.808 37.4166 102.898C38.199 102.869 38.9814 102.957 39.7375 103.16Z" fill="#1162DC"/>
<path d="M40.4035 114.846C39.6534 115.014 38.8828 115.07 38.1162 115.014C37.3419 115.069 36.5638 115.006 35.8087 114.826C36.5575 114.649 37.3295 114.593 38.096 114.658C38.8703 114.604 39.6483 114.667 40.4035 114.846Z" fill="#1162DC"/>
<path d="M41.0628 126.585C40.321 126.778 39.5547 126.859 38.789 126.827C38.0252 126.907 37.2537 126.868 36.5016 126.713C37.2404 126.516 38.0051 126.434 38.7688 126.471C39.5349 126.394 40.3081 126.433 41.0628 126.585Z" fill="#1162DC"/>
<path d="M41.7288 138.298C40.9951 138.514 40.2332 138.618 39.4684 138.607C38.713 138.727 37.9433 138.727 37.1879 138.607C37.9201 138.384 38.6829 138.277 39.4483 138.291C40.2045 138.179 40.9732 138.182 41.7288 138.298Z" fill="#1162DC"/>
<path d="M42.3948 150.011C41.669 150.249 40.9117 150.379 40.1479 150.394C39.3987 150.524 38.634 150.538 37.8807 150.434C38.6045 150.187 39.3628 150.055 40.1277 150.044C40.8774 149.919 41.6417 149.908 42.3948 150.011Z" fill="#1162DC"/>
<path d="M43.0541 161.723C42.3391 161.986 41.5884 162.14 40.8273 162.18C40.0865 162.334 39.3263 162.373 38.5737 162.294C39.2889 162.022 40.0428 161.866 40.8072 161.83C41.5463 161.68 42.304 161.644 43.0541 161.723Z" fill="#1162DC"/>
<path d="M43.7201 173.434C43.0094 173.717 42.2618 173.896 41.5001 173.965C40.7692 174.139 40.0163 174.203 39.2666 174.154C39.9714 173.859 40.7184 173.677 41.4799 173.615C42.2124 173.437 42.9685 173.376 43.7201 173.434Z" fill="#1162DC"/>
<path d="M177.534 63.4757H133.308V76.9775H136.558V82.4872L142.39 76.9775H177.534V63.4757Z" fill="white"/>
<path d="M177.534 63.4753C177.534 63.4753 177.534 63.5493 177.534 63.6973C177.534 63.8453 177.534 64.0875 177.534 64.3701C177.534 64.9823 177.534 65.8703 177.534 67.0139C177.534 69.3483 177.568 72.7322 177.595 76.9704V77.078H177.487L142.343 77.1386L142.458 77.0915L136.632 82.6012L136.336 82.8838V76.9704L136.511 77.1453H133.086V76.9704C133.086 72.2613 133.086 67.7337 133.086 63.4686V63.3004H133.255L165.028 63.3811L174.211 63.4282H176.646H177.272H177.48H177.251H176.579H174.103L164.887 63.4753L133.228 63.5493L133.396 63.3811C133.396 67.6463 133.396 72.1805 133.396 76.883L133.221 76.708H136.645V82.3927L136.349 82.2648L142.182 76.7551L142.229 76.708H142.303L177.447 76.7686L177.332 76.883C177.332 72.6716 177.379 69.3147 177.393 66.987C177.393 65.8366 177.393 64.9688 177.393 64.2961C177.393 64.0001 177.393 63.7713 177.393 63.6233C177.435 63.5695 177.482 63.5199 177.534 63.4753Z" fill="#1162DC"/>
<path d="M172.071 68.8172C172.071 68.9114 164.624 68.9922 155.441 68.9922C146.259 68.9922 138.811 68.9114 138.811 68.8172C138.811 68.7231 146.259 68.6423 155.441 68.6423C164.624 68.6423 172.071 68.7163 172.071 68.8172Z" fill="#1162DC"/>
<path d="M172.071 72.4636C172.071 72.5578 164.624 72.6385 155.441 72.6385C146.258 72.6385 138.838 72.5511 138.838 72.4636C138.838 72.3761 146.285 72.2887 155.468 72.2887C164.651 72.2887 172.071 72.3627 172.071 72.4636Z" fill="#1162DC"/>
<path d="M226.92 82.1373V95.6391H230.169H236.001H271.145V82.1373H226.92Z" fill="white"/>
<path d="M226.92 82.138H227.128H227.754H230.216L239.446 82.0909L271.145 82.0101H271.313V82.185C271.313 86.4704 271.313 91.0046 271.313 95.6734C270.964 96.0299 271.206 95.7743 271.125 95.855H258.155H246.227L226.92 95.8147H226.805V95.707C226.805 91.4553 226.852 88.0715 226.866 85.7371C226.866 84.6002 226.866 83.7189 226.866 83.1V82.4272C226.86 82.3533 226.86 82.2791 226.866 82.2052C226.866 82.2052 226.866 82.2927 226.866 82.4474V83.1201C226.866 83.7458 226.866 84.6338 226.866 85.8111C226.866 88.132 226.899 91.489 226.926 95.7138L226.819 95.5994L246.126 95.5523H271.017C270.943 95.6263 271.206 95.3774 270.856 95.7205V82.1447L271.031 82.3129L239.453 82.2321L230.33 82.185H227.835H227.162C227.079 82.1809 226.998 82.165 226.92 82.138Z" fill="#1162DC"/>
<path d="M265.683 87.4788C265.683 87.5729 258.235 87.6537 249.053 87.6537C239.87 87.6537 232.422 87.5729 232.422 87.4788C232.422 87.3846 239.87 87.3038 249.053 87.3038C258.235 87.3038 265.683 87.3846 265.683 87.4788Z" fill="#1162DC"/>
<path d="M265.683 91.1183C265.683 91.2192 258.235 91.2932 249.053 91.2932C239.87 91.2932 232.422 91.2192 232.422 91.1183C232.422 91.0174 239.87 90.9434 249.053 90.9434C258.235 90.9434 265.683 91.0241 265.683 91.1183Z" fill="#1162DC"/>
<path d="M299.144 305.23C299.144 305.331 232.819 305.405 151.021 305.405C69.2235 305.405 2.88507 305.331 2.88507 305.23C2.88507 305.129 69.1966 305.055 151.021 305.055C232.846 305.055 299.144 305.129 299.144 305.23Z" fill="#263238"/>
<path d="M82.833 268.944C83.324 267.228 84.3802 265.58 86.015 264.86C87.6497 264.141 89.6949 264.537 91.4372 265.163C93.1796 265.789 94.8951 266.636 96.7519 266.744C98.6086 266.852 100.687 265.97 101.239 264.201C101.791 262.432 100.748 260.763 99.4899 259.559C98.1606 258.283 96.531 257.362 94.7519 256.883C92.9727 256.403 91.1013 256.379 89.3105 256.813C87.5197 257.248 85.8672 258.126 84.5058 259.368C83.1444 260.61 82.1179 262.175 81.5211 263.919" fill="#A7CAFF"/>
<g opacity="0.5">
<path d="M82.833 268.943C83.324 267.228 84.3802 265.579 86.015 264.86C87.6497 264.14 89.6949 264.537 91.4372 265.162C93.1796 265.788 94.8951 266.636 96.7519 266.743C98.6086 266.851 100.687 265.97 101.239 264.2C101.791 262.431 100.748 260.763 99.4899 259.558C98.1606 258.282 96.531 257.362 94.7519 256.882C92.9727 256.402 91.1013 256.378 89.3105 256.812C87.5197 257.247 85.8672 258.126 84.5058 259.368C83.1444 260.609 82.1179 262.174 81.5211 263.918" fill="black"/>
</g>
<path d="M68.2009 276.418C65.51 273.841 65.6041 269.347 66.9496 265.856C68.2951 262.364 71.2484 259.667 74.5448 257.891C77.7662 256.189 81.3311 255.239 84.9722 255.112C88.6132 254.985 92.2357 255.684 95.5678 257.157C93.9356 257.229 92.3459 257.699 90.9383 258.529C89.5307 259.358 88.3483 260.52 87.495 261.914C86.0082 264.389 85.6853 267.396 84.4609 269.986C83.0812 272.934 80.625 275.241 77.5971 276.433C74.5692 277.625 71.1996 277.613 68.1807 276.398" fill="#A7CAFF"/>
<path d="M66.8555 260.918C63.8416 257.373 63.4245 251.675 63.8618 247.04C64.2991 242.404 65.3553 237.742 64.6085 233.148C64.1713 230.423 63.1083 227.826 62.7451 225.075C62.3818 222.323 62.8796 219.249 64.992 217.48C67.4273 215.461 71.2619 215.919 73.7981 217.816C76.3343 219.713 77.8345 222.7 78.884 225.68C81.2587 232.226 82.14 239.485 80.2295 246.178C78.3189 252.872 73.7846 258.86 67.1246 260.891" fill="#A7CAFF"/>
<path d="M65.4629 290.048C65.4528 289.913 65.4528 289.778 65.4629 289.644C65.4629 289.375 65.4629 288.971 65.4629 288.467C65.5033 287.451 65.5974 285.978 65.8195 284.168C66.0817 282.047 66.4613 279.943 66.9564 277.864C67.5754 275.315 68.5372 272.862 69.8155 270.572C71.1045 268.279 72.6876 266.164 74.5246 264.282C76.0093 262.739 77.6558 261.361 79.4356 260.171C80.1891 259.653 80.9089 259.256 81.5346 258.886C82.1602 258.516 82.7388 258.274 83.1962 258.052L84.2793 257.595C84.402 257.538 84.5278 257.489 84.6561 257.447C84.5425 257.525 84.4206 257.59 84.2928 257.642L83.2366 258.14C82.7859 258.375 82.2342 258.664 81.6018 259.008C80.9695 259.351 80.2564 259.795 79.5365 260.319C77.7813 261.52 76.1557 262.9 74.6861 264.436C72.8872 266.32 71.3322 268.422 70.0577 270.693C67.3062 275.537 66.5595 280.623 66.0213 284.188C65.7724 285.991 65.6513 287.458 65.5907 288.473C65.5907 288.964 65.5369 289.355 65.5234 289.644C65.5122 289.78 65.492 289.914 65.4629 290.048Z" fill="white"/>
<path d="M39.4145 246.972C33.8577 250.335 33.8846 253.403 34.8198 256.282C35.7549 259.162 39.1791 261.16 42.0046 260.076C43.6057 259.458 44.7628 258.058 45.745 256.666C46.7272 255.273 47.6623 253.766 49.0481 252.757C50.434 251.748 52.4118 251.365 53.838 252.353" fill="#A7CAFF"/>
<g opacity="0.5">
<path d="M39.4146 246.972C33.8578 250.336 33.8847 253.404 34.8198 256.283C35.7549 259.162 39.1791 261.16 42.0046 260.077C43.6057 259.458 44.7629 258.059 45.745 256.667C46.7272 255.274 47.6623 253.767 49.0482 252.758C50.434 251.749 52.4119 251.365 53.8381 252.354" fill="black"/>
</g>
<path d="M35.2369 250.666C36.69 248.648 40.2824 248.062 42.5562 249.058C44.8301 250.054 46.4917 252.045 47.9852 254.023C49.4787 256.001 50.9318 258.1 52.9971 259.479C55.0624 260.858 57.9417 261.349 59.9936 259.95C60.6479 259.461 61.1955 258.844 61.6028 258.136C62.01 257.428 62.2682 256.644 62.3616 255.832C62.5389 254.209 62.425 252.566 62.0252 250.982C61.5274 248.648 60.7201 246.212 58.8499 244.732C56.7644 243.084 53.8717 243.01 51.2144 243.104C48.1669 243.212 45.079 243.447 42.2199 244.51C39.3607 245.573 36.4478 247.874 35.2369 250.666Z" fill="#A7CAFF"/>
<path d="M60.8009 285.607C60.7955 285.565 60.7955 285.522 60.8009 285.479C60.8009 285.385 60.8009 285.271 60.8009 285.123C60.8009 284.786 60.8009 284.329 60.747 283.744C60.747 282.519 60.6596 280.79 60.5923 278.664C60.525 276.539 60.4241 273.955 60.2627 271.137C60.1012 268.318 59.8792 265.19 59.4419 261.954C59.255 260.377 58.9423 258.818 58.5068 257.292C58.0634 255.882 57.489 254.517 56.7913 253.215C56.1712 252.033 55.4486 250.907 54.6319 249.851C53.9174 248.931 53.13 248.069 52.2773 247.275C51.0334 246.133 49.628 245.181 48.1063 244.449C47.8305 244.321 47.595 244.2 47.3865 244.113L46.8416 243.904L46.5052 243.77C46.4312 243.77 46.3908 243.723 46.3976 243.716L46.5119 243.749L46.855 243.857L47.4134 244.045C47.6287 244.126 47.8709 244.241 48.1467 244.362C49.6994 245.065 51.1337 246.004 52.3984 247.147C53.2644 247.94 54.0653 248.802 54.7933 249.723C55.6226 250.779 56.3586 251.904 56.9932 253.087C57.7033 254.4 58.2889 255.776 58.7423 257.197C59.1845 258.739 59.5017 260.314 59.6908 261.907C60.1281 265.156 60.3636 268.277 60.4914 271.11C60.6192 273.942 60.7134 276.492 60.7672 278.644C60.821 280.797 60.8345 282.526 60.8479 283.723V285.466C60.8392 285.515 60.8234 285.563 60.8009 285.607Z" fill="white"/>
<path d="M62.8191 288.117C62.551 287.338 62.344 286.54 62.2001 285.729C61.8062 283.509 61.7157 281.246 61.931 279.001C62.2618 275.684 62.9659 272.414 64.03 269.253C65.1602 265.668 66.7209 261.853 68.0193 257.716C69.284 253.852 70.0747 249.85 70.3739 245.795C70.6177 242.484 70.6694 239.162 70.5286 235.845C70.4277 233.013 70.2662 230.719 70.1721 229.118C70.125 228.338 70.0846 227.726 70.0577 227.295C70.0577 227.093 70.0577 226.938 70.0577 226.817C70.0488 226.764 70.0488 226.709 70.0577 226.656C70.0606 226.71 70.0606 226.764 70.0577 226.817C70.0577 226.938 70.0577 227.093 70.1048 227.288C70.1048 227.719 70.1922 228.331 70.2595 229.111C70.3873 230.692 70.569 232.98 70.6968 235.839C70.8647 239.163 70.831 242.495 70.5959 245.815C70.4471 247.777 70.1911 249.728 69.829 251.661C69.4253 253.734 68.8974 255.781 68.248 257.79C66.9026 261.927 65.3822 265.755 64.2116 269.321C63.1687 272.471 62.4761 275.726 62.1463 279.028C61.92 281.254 61.9833 283.499 62.3347 285.709C62.476 286.489 62.6038 287.094 62.7114 287.491L62.8258 287.956C62.8278 288.009 62.8256 288.063 62.8191 288.117Z" fill="white"/>
<path d="M76.637 290.598L50.508 290.659L49.9025 285.634L76.6303 285.566L76.637 290.598Z" fill="#9ECBE0"/>
<path d="M53.3133 290.081L56.6164 305.157L70.8112 305.123L73.8317 290.027L53.3133 290.081Z" fill="#9ECBE0"/>
<path d="M76.637 290.599C76.637 290.667 70.8919 290.721 63.808 290.714C56.724 290.707 50.9789 290.653 50.9789 290.586C50.9789 290.519 56.724 290.465 63.808 290.465C70.8919 290.465 76.637 290.525 76.637 290.599Z" fill="#9ECBE0"/>
<path d="M72.1701 298.052C71.4596 297.523 70.6869 297.082 69.8693 296.74C68.9763 296.392 68.0291 296.203 67.0707 296.182C65.894 296.191 64.7281 296.408 63.6263 296.821C62.4423 297.232 61.3256 297.702 60.2627 297.965C59.3011 298.174 58.3093 298.206 57.3363 298.059C56.682 297.968 56.0475 297.768 55.4593 297.467C55.2982 297.385 55.1451 297.288 55.0019 297.178C54.9032 297.106 54.8561 297.066 54.8606 297.057C54.8606 297.057 55.0826 297.184 55.5333 297.38C56.126 297.639 56.754 297.809 57.3968 297.884C58.349 298.001 59.3142 297.951 60.2492 297.736C61.2919 297.474 62.402 296.996 63.6129 296.586C64.7372 296.162 65.9297 295.948 67.1313 295.953C68.1168 295.985 69.0881 296.197 69.9971 296.579C70.6064 296.831 71.1789 297.163 71.6992 297.568C71.8439 297.675 71.9811 297.792 72.1095 297.918C72.1364 297.998 72.1768 298.046 72.1701 298.052Z" fill="white"/>
<path d="M71.975 299.062C71.2878 298.548 70.5454 298.113 69.7617 297.764C68.9061 297.417 67.9937 297.233 67.0707 297.219C65.9224 297.219 64.7834 297.424 63.7071 297.824C62.5567 298.208 61.4803 298.659 60.451 298.941C59.5384 299.205 58.5878 299.315 57.639 299.264C56.9975 299.228 56.3702 299.061 55.7957 298.773C55.6403 298.693 55.4918 298.601 55.3517 298.497C55.2575 298.423 55.2104 298.383 55.2171 298.376C55.2239 298.369 55.4324 298.504 55.836 298.685C56.4097 298.929 57.0229 299.066 57.6457 299.089C58.5744 299.111 59.5008 298.986 60.3905 298.719C61.3996 298.43 62.4692 297.979 63.6331 297.589C64.7246 297.186 65.8801 296.983 67.0438 296.99C68.6419 297.033 70.1831 297.593 71.4368 298.585C71.5739 298.691 71.7042 298.805 71.827 298.928C71.9413 299.008 71.9817 299.055 71.975 299.062Z" fill="white"/>
<path d="M72.4324 297.05C71.6965 296.502 70.9023 296.037 70.0644 295.664C69.1526 295.276 68.1809 295.049 67.1918 294.991C65.98 294.968 64.7754 295.183 63.6465 295.624C62.5022 296.077 61.3318 296.461 60.1415 296.774C59.142 296.946 58.1205 296.946 57.1209 296.774C56.4456 296.673 55.7898 296.469 55.1767 296.169C55.0118 296.083 54.8542 295.984 54.7058 295.873C54.5982 295.799 54.5511 295.758 54.5578 295.751C54.5645 295.745 54.7865 295.886 55.2306 296.081C55.8477 296.34 56.4973 296.515 57.1613 296.599C58.1401 296.742 59.1358 296.721 60.1079 296.539C61.2838 296.209 62.4424 295.821 63.5792 295.375C64.7378 294.923 65.9758 294.71 67.2187 294.749C68.9307 294.873 70.5684 295.497 71.9279 296.545C72.0733 296.656 72.2125 296.775 72.345 296.902C72.3794 296.948 72.4087 296.997 72.4324 297.05Z" fill="white"/>
<path d="M76.8725 290.618C76.8725 290.685 70.9928 290.753 63.7407 290.773C56.4886 290.793 50.6156 290.773 50.6156 290.678C50.6156 290.584 56.4886 290.537 63.7407 290.524C70.9928 290.51 76.8725 290.544 76.8725 290.618Z" fill="white"/>
<path d="M175.173 283.562L176.094 305.217L187.786 304.955L186.912 283.259L175.173 283.562Z" fill="#1162DC"/>
<path d="M181.833 304.276C181.934 304.276 181.752 299.526 181.429 293.68C181.106 287.834 180.756 283.105 180.676 283.111C180.595 283.118 180.756 287.854 181.079 293.7C181.402 299.546 181.739 304.276 181.833 304.276Z" fill="#263238"/>
<path d="M176.034 303.724L187.726 303.428L187.787 304.955L176.094 305.218L176.034 303.724Z" fill="#263238"/>
<path d="M187.511 298.02C187.428 297.851 187.319 297.697 187.188 297.563C186.857 297.174 186.49 296.818 186.091 296.5C185.506 296.013 184.85 295.616 184.147 295.323C183.282 294.942 182.34 294.769 181.396 294.818C180.541 294.853 179.702 295.067 178.934 295.444C178.166 295.822 177.485 296.356 176.935 297.011C176.608 297.406 176.338 297.845 176.135 298.316C176.048 298.484 175.993 298.667 175.973 298.854C176.311 298.264 176.696 297.702 177.124 297.173C178.231 295.959 179.775 295.233 181.416 295.154C183.055 295.134 184.651 295.673 185.943 296.682C186.952 297.448 187.464 298.067 187.511 298.02Z" fill="#263238"/>
<g opacity="0.3">
<path d="M187.161 289.436L187.255 291.818L175.536 292.033L175.455 290.237L187.161 289.436Z" fill="black"/>
</g>
<path opacity="0.3" d="M175.455 292.315L175.63 294.239H187.356L187.275 292.315H175.455Z" fill="black"/>
<path d="M148.257 284.565L149.293 297.717C149.293 297.717 136.322 302.911 136.282 305.36L161.772 304.559L160.998 284L148.257 284.565Z" fill="#1162DC"/>
<path d="M156.955 296.324C157.206 296.389 157.425 296.544 157.568 296.76C157.712 296.976 157.772 297.237 157.735 297.494C157.68 297.747 157.53 297.969 157.316 298.114C157.102 298.259 156.84 298.317 156.585 298.274C156.319 298.206 156.089 298.042 155.937 297.813C155.786 297.584 155.724 297.308 155.764 297.037C155.851 296.779 156.034 296.565 156.274 296.44C156.515 296.314 156.795 296.287 157.056 296.364" fill="#E0E0E0"/>
<path d="M161.772 304.559L161.711 302.917L136.955 304.209C136.741 304.359 136.559 304.551 136.42 304.773C136.282 304.995 136.189 305.242 136.147 305.501L161.772 304.559Z" fill="#263238"/>
<path d="M149.037 297.832C149.037 297.96 149.71 297.987 150.315 298.363C150.921 298.74 151.304 299.258 151.412 299.204C151.519 299.15 151.311 298.431 150.53 297.987C149.75 297.543 149.003 297.697 149.037 297.832Z" fill="#263238"/>
<path d="M146.38 299.042C146.38 299.17 146.911 299.359 147.362 299.87C147.813 300.381 147.961 300.939 148.082 300.933C148.203 300.926 148.257 300.206 147.685 299.587C147.113 298.968 146.38 298.921 146.38 299.042Z" fill="#263238"/>
<path d="M144.987 302.345C145.101 302.345 145.249 301.726 144.9 301.053C144.55 300.38 143.944 300.131 143.897 300.239C143.85 300.347 144.227 300.696 144.509 301.255C144.792 301.813 144.893 302.338 144.987 302.345Z" fill="#263238"/>
<path d="M149.131 294.764C149.192 294.878 149.763 294.683 150.477 294.696C151.19 294.71 151.748 294.919 151.822 294.804C151.896 294.69 151.331 294.273 150.477 294.259C149.622 294.246 149.071 294.67 149.131 294.764Z" fill="#263238"/>
<path d="M148.553 291.944C148.98 292.045 149.428 292.024 149.844 291.883C150.311 291.783 150.763 291.625 151.19 291.412C151.44 291.285 151.682 291.143 151.916 290.989C152.057 290.9 152.184 290.791 152.293 290.666C152.366 290.569 152.406 290.451 152.406 290.329C152.406 290.208 152.366 290.09 152.293 289.993C152.225 289.909 152.138 289.842 152.041 289.797C151.943 289.751 151.836 289.729 151.728 289.731C151.565 289.738 151.405 289.768 151.25 289.818C150.976 289.895 150.71 289.999 150.456 290.127C150.03 290.344 149.639 290.625 149.299 290.962C148.727 291.54 148.546 292.018 148.586 292.038C148.627 292.058 148.923 291.675 149.508 291.19C149.853 290.92 150.23 290.695 150.631 290.518C150.868 290.412 151.114 290.327 151.365 290.262C151.634 290.175 151.862 290.168 151.936 290.262C152.01 290.356 151.936 290.329 151.936 290.41C151.856 290.501 151.763 290.581 151.661 290.646C151.082 291.055 150.444 291.374 149.77 291.594C149.357 291.682 148.95 291.799 148.553 291.944Z" fill="#263238"/>
<path d="M148.728 292.12C148.954 291.742 149.053 291.301 149.01 290.862C149.016 290.383 148.936 289.907 148.775 289.456C148.683 289.188 148.561 288.931 148.411 288.689C148.336 288.521 148.219 288.376 148.07 288.267C147.921 288.159 147.747 288.091 147.564 288.071C147.449 288.078 147.338 288.118 147.246 288.186C147.153 288.254 147.081 288.347 147.039 288.454C146.982 288.608 146.943 288.768 146.925 288.932C146.894 289.221 146.907 289.514 146.965 289.799C147.061 290.279 147.273 290.727 147.584 291.105C148.115 291.777 148.647 291.878 148.66 291.831C148.674 291.784 148.25 291.542 147.833 290.923C147.595 290.562 147.439 290.153 147.375 289.726C147.342 289.478 147.342 289.227 147.375 288.979C147.375 288.703 147.496 288.481 147.597 288.501C147.698 288.521 147.954 288.689 148.068 288.905C148.203 289.119 148.32 289.344 148.418 289.577C148.58 289.987 148.682 290.417 148.721 290.856C148.768 291.629 148.654 292.107 148.728 292.12Z" fill="#263238"/>
<g opacity="0.3">
<path d="M161.328 291.883L161.409 294.802L149.071 295.24L148.976 292.589L161.328 291.883Z" fill="black"/>
</g>
<path d="M158.819 115.984L173.807 115.796L172.139 103.014C172.139 103.014 173.161 102.792 173.229 97.2416C173.296 91.6915 173.551 82.253 173.551 82.253C170.395 80.8942 166.932 80.4035 163.523 80.8317C160.113 81.2598 156.879 82.5913 154.156 84.6883L153.336 85.3207L158.819 115.984Z" fill="#FFBE9D"/>
<path d="M155.071 92.1686C154.977 92.1215 151.257 91.0384 151.378 94.8595C151.499 98.6807 155.287 97.7523 155.293 97.6446C155.3 97.537 155.071 92.1686 155.071 92.1686Z" fill="#FFBE9D"/>
<path d="M172.906 91.3756C173 91.3352 176.39 90.4203 176.269 94.2145C176.148 98.0087 172.361 97.1073 172.354 96.9996C172.347 96.892 172.906 91.3756 172.906 91.3756Z" fill="#FFBE9D"/>
<path d="M153.84 91.7458C154.412 94.9211 154.298 96.5962 154.823 98.722C155.657 102.086 157.325 104.662 160.352 106.344C163.38 108.026 167.483 107.992 170.087 105.671C171.89 104.084 173.168 102.308 173.451 99.906C173.733 97.5044 173.989 93.2863 174.002 90.8779C174.036 86.5455 174.325 82.4015 174.325 82.4015L161.94 80.1613L154.89 84.3524L153.84 91.7458Z" fill="#263238"/>
<path d="M166.616 108.261C165.925 108.524 165.175 108.589 164.449 108.45C163.708 108.421 162.988 108.188 162.371 107.777C162.411 107.683 163.326 107.972 164.49 108.093C165.653 108.214 166.602 108.16 166.616 108.261Z" fill="#263238"/>
<path d="M154.439 97.1542C154.076 93.8914 153.84 90.1645 153.336 86.7268C153.141 85.4351 152.663 83.5717 152.798 82.2733C152.834 80.9629 153.11 79.6702 153.612 78.4589C153.976 77.7206 154.505 77.0758 155.157 76.574C155.81 76.0721 156.569 75.7267 157.376 75.5643C158.183 75.4018 159.016 75.4267 159.812 75.6369C160.608 75.8472 161.345 76.2372 161.967 76.777C162.425 76.1041 163.075 75.5852 163.833 75.2885C164.591 74.9918 165.421 74.9312 166.214 75.1145C167.007 75.2978 167.726 75.7165 168.276 76.3158C168.827 76.915 169.184 77.6667 169.3 78.4723C169.744 78.0485 170.315 77.783 170.926 77.7168C171.536 77.6506 172.151 77.7874 172.676 78.1061C173.201 78.4248 173.606 78.9075 173.829 79.4797C174.051 80.0518 174.079 80.6813 173.908 81.2709C174.355 81.3455 174.776 81.53 175.133 81.8078C175.491 82.0856 175.774 82.448 175.957 82.8623C176.14 83.2767 176.217 83.73 176.181 84.1815C176.145 84.6329 175.997 85.0684 175.751 85.4486C175.173 86.3299 174.143 86.7941 173.511 87.6619C173.153 88.1534 172.943 88.7379 172.909 89.3453C172.874 89.9526 173.016 90.5571 173.316 91.0861" fill="#263238"/>
<path d="M171.641 85.3681C171.623 85.4955 171.577 85.6174 171.506 85.7247C171.327 86.0442 171.082 86.3217 170.786 86.5387C170.319 86.8805 169.751 87.0579 169.172 87.0432C168.795 87.0339 168.424 86.9465 168.082 86.7867C167.741 86.627 167.436 86.3982 167.187 86.1148L167.45 86.0408C167.358 86.4727 167.159 86.8741 166.869 87.2072C166.579 87.5403 166.21 87.7941 165.795 87.9447C165.337 88.1226 164.842 88.1838 164.355 88.1227C163.867 88.0616 163.403 87.8802 163.003 87.5949C162.275 87.0912 161.724 86.3709 161.429 85.5363H161.731C161.419 85.9965 161.002 86.3757 160.514 86.6425C160.026 86.9092 159.482 87.0558 158.926 87.0701C158.488 87.0796 158.052 86.9992 157.646 86.8337C157.24 86.6683 156.872 86.4213 156.565 86.1081C156.158 85.7066 155.864 85.2056 155.71 84.655C155.643 84.4631 155.618 84.2589 155.636 84.0563C155.636 84.0563 155.69 84.2648 155.825 84.6214C156.01 85.1338 156.315 85.5949 156.713 85.9669C157.006 86.2438 157.352 86.4596 157.73 86.6017C158.107 86.7438 158.509 86.8093 158.913 86.7943C159.418 86.7716 159.91 86.6308 160.351 86.3831C160.791 86.1354 161.167 85.7877 161.449 85.3681L161.631 85.0788L161.745 85.4017C162.02 86.1647 162.525 86.8231 163.191 87.2854C163.547 87.5375 163.959 87.6992 164.392 87.7566C164.824 87.814 165.264 87.7654 165.674 87.6151C166.038 87.4871 166.364 87.2698 166.623 86.983C166.882 86.6963 167.064 86.3492 167.154 85.9736L167.208 85.6574L167.416 85.8996C167.637 86.1571 167.908 86.3678 168.212 86.5192C168.515 86.6705 168.847 86.7595 169.185 86.7809C169.717 86.8097 170.243 86.6658 170.686 86.3705C171.068 86.104 171.393 85.7631 171.641 85.3681Z" fill="#455A64"/>
<path d="M171.621 83.8611C171.548 83.3677 171.366 82.8966 171.089 82.482C170.776 82.0434 170.315 81.7328 169.791 81.6075C169.468 81.5313 169.133 81.5237 168.808 81.5851C168.482 81.6465 168.173 81.7756 167.9 81.964L167.598 82.186L167.631 81.8093C167.658 81.4412 167.615 81.0714 167.504 80.7194C167.382 80.3363 167.185 79.9819 166.922 79.6777C166.659 79.3735 166.338 79.126 165.976 78.9501C165.372 78.671 164.69 78.6092 164.046 78.7752C163.448 78.9525 162.898 79.2631 162.438 79.6834C162.508 79.523 162.614 79.3804 162.747 79.2663C163.093 78.9254 163.519 78.6757 163.985 78.5398C164.685 78.3253 165.438 78.3658 166.111 78.6541C166.517 78.8449 166.879 79.1171 167.176 79.4539C167.472 79.7907 167.696 80.1848 167.833 80.6118C167.96 81.009 168.006 81.4277 167.968 81.8429L167.699 81.6882C168.01 81.4741 168.365 81.3302 168.738 81.2663C169.111 81.2024 169.493 81.2201 169.858 81.3182C170.443 81.4733 170.947 81.8433 171.271 82.3542C171.488 82.6818 171.62 83.0589 171.654 83.4508C171.68 83.5881 171.668 83.7298 171.621 83.8611Z" fill="#455A64"/>
<path d="M163.729 83.9758C163.682 83.9758 163.729 83.7606 163.729 83.4511C163.694 83.0532 163.563 82.6699 163.346 82.3344C163.125 81.985 162.885 81.6481 162.626 81.3253C162.438 81.1302 162.256 81.2647 162.229 81.2445C162.202 81.2244 162.229 81.1638 162.317 81.0965C162.386 81.0514 162.466 81.0273 162.549 81.0273C162.631 81.0273 162.712 81.0514 162.781 81.0965C162.939 81.2254 163.081 81.3721 163.205 81.5338C163.367 81.7161 163.513 81.9119 163.642 82.1191C163.896 82.507 164.015 82.9685 163.978 83.4309C163.911 83.8211 163.729 83.996 163.729 83.9758Z" fill="#455A64"/>
<path d="M156.376 79.1927C156.336 79.1927 156.376 78.8967 156.605 78.52C156.749 78.2844 156.942 78.0825 157.17 77.928C157.468 77.7328 157.827 77.6538 158.179 77.706C158.782 77.816 159.319 78.1532 159.68 78.6478C159.955 78.9976 160.083 79.2398 160.05 79.2734C160.016 79.3071 159.814 79.112 159.498 78.816C159.136 78.4314 158.668 78.1643 158.152 78.0491C157.894 78.0214 157.633 78.0636 157.396 78.1713C157.159 78.279 156.956 78.4482 156.807 78.6613C156.545 78.9774 156.424 79.1927 156.376 79.1927Z" fill="#455A64"/>
<path d="M158.3 95.338C157.691 94.6376 157.245 93.8103 156.995 92.9162C156.64 92.0657 156.484 91.1453 156.538 90.2252C156.639 90.2252 156.834 91.4227 157.325 92.8287C157.816 94.2347 158.388 95.2506 158.3 95.338Z" fill="#455A64"/>
<path d="M159.962 96.2123C159.538 95.7098 159.227 95.1227 159.047 94.4901C158.76 93.8959 158.606 93.2462 158.597 92.5863C158.934 93.1426 159.195 93.7424 159.37 94.369C159.653 94.9527 159.852 95.5732 159.962 96.2123Z" fill="#455A64"/>
<path d="M170.396 96.4744C170.52 97.6049 170.374 98.7486 169.972 99.8124C169.57 100.876 168.922 101.83 168.082 102.596C168.681 101.669 169.205 100.694 169.65 99.6833C169.982 98.6348 170.231 97.5619 170.396 96.4744Z" fill="#455A64"/>
<path d="M172.065 93.7032C172.463 94.6545 172.547 95.7077 172.307 96.7104C172.181 97.7339 171.728 98.6895 171.015 99.4349C171.415 98.5371 171.732 97.6049 171.964 96.6498C172.081 95.6723 172.115 94.6865 172.065 93.7032Z" fill="#455A64"/>
<path d="M167.578 200.957L171.358 237.412L174.076 292.314H188.56L188.93 183.304L187.013 175.675L148.169 178.763L138.879 239.727L146.326 293.384H162.223L158.496 242.364L167.578 200.957Z" fill="#263238"/>
<path d="M167.578 200.957C166.723 201.968 165.78 202.9 164.759 203.742C163.817 204.671 162.793 205.511 161.698 206.252C163.495 204.314 165.462 202.542 167.578 200.957Z" fill="#455A64"/>
<path d="M167.537 200.224C167.472 198.654 167.497 197.082 167.611 195.515C167.616 193.955 167.705 192.397 167.88 190.846C168.066 192.409 168.098 193.986 167.974 195.555C167.978 197.122 167.832 198.686 167.537 200.224Z" fill="#455A64"/>
<path d="M172.327 186.614C172.405 186.609 172.484 186.609 172.563 186.614L173.276 186.567L176.027 186.433L185.849 186.022H186.01V186.157C186.01 189.224 186.01 192.689 186.01 196.355V196.678L185.896 196.719L179.512 199.282H179.451H179.391L173.74 197.317H173.652V197.223C173.242 194.041 172.899 191.391 172.65 189.494C172.542 188.606 172.455 187.892 172.388 187.368C172.351 187.125 172.328 186.88 172.32 186.634C172.34 186.703 172.356 186.773 172.367 186.843C172.367 187.004 172.421 187.193 172.462 187.422C172.549 187.953 172.663 188.673 172.805 189.574C173.087 191.444 173.477 194.055 173.948 197.183L173.847 197.062L179.512 198.986H179.398L185.775 196.416L185.667 196.577V196.382C185.667 192.716 185.667 189.251 185.667 186.184L185.836 186.345L176.121 186.587L173.329 186.641H172.576C172.492 186.64 172.409 186.631 172.327 186.614Z" fill="#455A64"/>
<path d="M151.412 186.83C151.481 186.82 151.551 186.82 151.62 186.83L152.293 186.796L154.782 186.722L163.736 186.514H163.904V186.682C163.81 189.709 163.696 193.201 163.575 196.914V196.921L163.494 196.968L162.458 197.641L157.204 201.065L157.117 201.125L157.022 201.072L151.102 197.466L151.028 197.419V197.331C151.143 194.156 151.237 191.505 151.304 189.608C151.338 188.72 151.371 188.014 151.392 187.482C151.412 186.951 151.439 186.749 151.445 186.763C151.455 186.832 151.455 186.902 151.445 186.971V187.543C151.445 188.081 151.445 188.801 151.445 189.702C151.445 191.579 151.378 194.196 151.331 197.338L151.257 197.21L157.197 200.769H157.002L162.249 197.331L163.286 196.659L163.205 196.8C163.339 193.086 163.467 189.595 163.575 186.574L163.736 186.736L154.876 186.783H151.674L151.412 186.83Z" fill="#455A64"/>
<path d="M184.477 203.312C183.821 203.353 183.163 203.33 182.512 203.245C181.308 203.157 179.64 202.996 177.803 202.753C175.967 202.511 174.318 202.249 173.128 202.027C172.476 201.942 171.834 201.795 171.21 201.59C171.865 201.593 172.518 201.656 173.161 201.778L177.87 202.397L182.58 202.996C183.22 203.043 183.855 203.149 184.477 203.312Z" fill="#455A64"/>
<path d="M184.14 243.944C184.14 243.944 184.087 244.159 183.797 244.408C183.378 244.745 182.855 244.924 182.317 244.913C181.522 244.885 180.76 244.591 180.151 244.079C179.433 243.468 178.774 242.792 178.18 242.06C177.079 240.775 176.097 239.393 175.247 237.93C174.866 237.342 174.558 236.709 174.332 236.046C174.74 236.608 175.118 237.192 175.462 237.795C176.368 239.207 177.368 240.555 178.456 241.832C179.034 242.539 179.671 243.196 180.36 243.796C180.906 244.282 181.595 244.578 182.324 244.637C182.815 244.666 183.302 244.538 183.716 244.274C184.006 244.099 184.12 243.931 184.14 243.944Z" fill="#455A64"/>
<path d="M155.529 245.23C155.505 245.399 155.438 245.559 155.334 245.694C155.08 246.086 154.737 246.412 154.331 246.643C153.73 246.995 153.044 247.176 152.347 247.168C151.494 247.139 150.665 246.876 149.952 246.407C148.703 245.54 147.707 244.356 147.066 242.976C146.762 242.437 146.523 241.863 146.353 241.268C146.706 241.773 147.021 242.303 147.295 242.855C147.968 244.152 148.944 245.266 150.14 246.105C150.803 246.534 151.565 246.787 152.354 246.838C152.998 246.862 153.638 246.718 154.21 246.421C154.732 246.125 155.182 245.719 155.529 245.23Z" fill="#455A64"/>
<path d="M156.45 239.726C156.1 240.024 155.696 240.253 155.26 240.399C153.182 241.268 150.862 241.363 148.721 240.668C148.27 240.557 147.847 240.355 147.476 240.076C150.403 241.119 153.62 240.987 156.45 239.706V239.726Z" fill="#455A64"/>
<path d="M156.154 113.328L157.069 110.172L173.545 109.5L175.139 112.318L190.107 117.492L186.804 151.68L185.762 165.74L186.811 169.104L185.297 172.118L186.226 177.668C186.226 177.668 176.35 180.46 171.21 180.884C166.071 181.307 156.942 180.258 156.942 180.258L148.196 178.738L148.775 170.537L148.102 169.003L148.835 167.456V157.365L143.85 137.721L144.099 117.371L156.154 113.328Z" fill="#1162DC"/>
<path d="M144.099 117.356C144.099 117.356 118.219 145.45 118.212 151.175C118.212 155.453 128.303 171.888 134.264 175.628L139.222 179.699L144.96 173.193L140.184 169.581C140.184 169.581 140.399 165.443 139.188 164.286C137.977 163.129 131.553 153.697 131.553 153.697C132.083 153.521 132.558 153.211 132.932 152.796C133.329 152.224 144.368 139.812 144.368 139.812L144.691 129.331L144.099 117.356Z" fill="#1162DC"/>
<path d="M131.579 154.344C131.202 154.515 130.804 154.634 130.395 154.701C129.433 154.88 128.489 155.148 127.577 155.501C126.715 155.965 125.89 156.494 125.108 157.082C124.792 157.356 124.439 157.583 124.058 157.755C124.317 157.433 124.621 157.15 124.96 156.914C125.707 156.256 126.526 155.685 127.402 155.212C128.339 154.846 129.321 154.604 130.321 154.492C130.731 154.378 131.155 154.328 131.579 154.344Z" fill="#263238"/>
<path d="M140.184 169.581C139.797 170.978 139.072 172.258 138.071 173.308C137.404 174.078 136.647 174.767 135.818 175.36C135.491 175.629 135.12 175.841 134.721 175.985C135.806 175.077 136.837 174.107 137.809 173.079C138.693 171.979 139.487 170.809 140.184 169.581Z" fill="#263238"/>
<path d="M140.682 171.989C140.634 171.989 140.944 171.606 141.603 171.68C141.798 171.699 141.985 171.764 142.149 171.871C142.313 171.977 142.449 172.122 142.545 172.292C142.647 172.502 142.7 172.732 142.7 172.965C142.696 173.096 142.663 173.225 142.602 173.341C142.542 173.458 142.455 173.559 142.35 173.638C142.163 173.786 141.939 173.881 141.703 173.914C141.466 173.947 141.225 173.917 141.004 173.826C140.831 173.737 140.682 173.606 140.571 173.445C140.461 173.284 140.392 173.098 140.372 172.904C140.312 172.232 140.688 171.942 140.702 171.983C140.602 172.265 140.572 172.567 140.614 172.864C140.645 173.009 140.709 173.146 140.802 173.262C140.894 173.379 141.011 173.473 141.146 173.537C141.313 173.598 141.493 173.614 141.669 173.585C141.845 173.555 142.01 173.481 142.148 173.368C142.215 173.319 142.27 173.255 142.31 173.182C142.349 173.109 142.372 173.028 142.377 172.945C142.38 172.769 142.346 172.595 142.276 172.433C142.209 172.303 142.114 172.189 141.998 172.099C141.881 172.009 141.747 171.947 141.603 171.915C141.295 171.863 140.978 171.888 140.682 171.989Z" fill="#263238"/>
<path d="M149.77 163.728C149.721 163.618 149.685 163.503 149.663 163.385L149.414 162.396L148.579 158.736C147.907 155.648 146.951 151.376 145.942 146.627C144.933 141.877 144.039 137.619 143.406 134.517C143.103 133.004 142.855 131.759 142.673 130.838C142.599 130.434 142.545 130.104 142.491 129.835C142.468 129.718 142.455 129.598 142.451 129.479C142.506 129.587 142.544 129.702 142.565 129.822C142.628 130.082 142.709 130.411 142.807 130.811C143.016 131.726 143.299 132.957 143.648 134.464C144.321 137.551 145.276 141.823 146.285 146.573C147.295 151.322 148.189 155.581 148.822 158.682C149.118 160.196 149.367 161.44 149.548 162.362C149.622 162.766 149.683 163.095 149.73 163.364C149.762 163.483 149.776 163.605 149.77 163.728Z" fill="#263238"/>
<path d="M182.748 166.951C182.389 167.089 182.02 167.201 181.644 167.287C180.931 167.489 179.882 167.738 178.584 168.007C171.798 169.417 164.842 169.83 157.937 169.231C156.592 169.11 155.549 168.989 154.816 168.875C154.432 168.835 154.052 168.765 153.679 168.666C154.063 168.66 154.448 168.682 154.829 168.733C155.569 168.807 156.632 168.895 157.957 168.982C161.396 169.202 164.844 169.216 168.284 169.023C171.722 168.811 175.143 168.391 178.53 167.765C179.835 167.522 180.884 167.314 181.604 167.152C181.978 167.051 182.361 166.983 182.748 166.951Z" fill="#263238"/>
<path d="M174.547 173.375C174.353 173.478 174.144 173.551 173.928 173.59C173.518 173.705 172.926 173.853 172.192 174.021C170.719 174.35 168.661 174.694 166.367 174.99C164.073 175.286 161.987 175.346 160.473 175.36C159.72 175.36 159.128 175.36 158.691 175.36C158.464 175.371 158.238 175.348 158.018 175.292C158.826 175.198 159.639 175.146 160.453 175.138C161.96 175.064 164.032 174.929 166.313 174.667C168.593 174.404 170.645 174.068 172.125 173.806C172.924 173.619 173.733 173.476 174.547 173.375Z" fill="#263238"/>
<path d="M179.983 131.47C179.999 131.595 179.999 131.721 179.983 131.846C179.983 132.129 179.942 132.485 179.922 132.923C179.922 133.158 179.889 133.421 179.868 133.696C179.848 133.972 179.788 134.288 179.741 134.618C179.645 135.365 179.51 136.106 179.337 136.838L179.027 138.116C178.92 138.56 178.758 139.011 178.61 139.462C178.295 140.463 177.926 141.446 177.507 142.408C176.524 144.605 175.318 146.694 173.908 148.645C172.458 150.566 170.817 152.335 169.01 153.926C168.214 154.609 167.383 155.251 166.521 155.85C166.111 156.125 165.734 156.415 165.337 156.65L164.207 157.323C163.501 157.767 162.794 158.063 162.189 158.366C161.886 158.507 161.617 158.648 161.355 158.756L160.621 159.038L159.612 159.408C159.5 159.464 159.38 159.501 159.256 159.516C159.361 159.447 159.474 159.391 159.592 159.348C159.848 159.227 160.177 159.085 160.574 158.91L161.281 158.608C161.543 158.487 161.812 158.339 162.101 158.184C162.775 157.86 163.43 157.5 164.066 157.108L165.183 156.435C165.566 156.193 165.936 155.897 166.34 155.621C167.154 155.076 167.934 154.39 168.782 153.69C172.386 150.536 175.258 146.633 177.198 142.254C177.621 141.304 177.996 140.334 178.321 139.347C178.469 138.883 178.644 138.446 178.758 138.002C178.873 137.558 178.974 137.147 179.081 136.744C179.31 135.943 179.404 135.197 179.532 134.544C179.586 134.221 179.653 133.918 179.693 133.636C179.734 133.353 179.747 133.104 179.774 132.869C179.824 132.42 179.864 132.064 179.895 131.799C179.912 131.686 179.942 131.576 179.983 131.47Z" fill="#263238"/>
<path d="M175.025 112.741C174.813 112.862 174.587 112.957 174.352 113.023C173.895 113.185 173.228 113.38 172.388 113.595C170.201 114.131 167.964 114.44 165.714 114.517C163.461 114.588 161.206 114.424 158.987 114.026C158.139 113.871 157.453 113.716 156.968 113.582C156.724 113.53 156.485 113.453 156.255 113.353C156.255 113.293 157.312 113.535 159.007 113.784C161.214 114.104 163.444 114.232 165.674 114.167C167.902 114.084 170.118 113.812 172.3 113.353C173.989 112.996 175.011 112.687 175.025 112.741Z" fill="#263238"/>
<g opacity="0.3">
<path d="M158.152 113.811C160.395 115.515 163.163 116.379 165.976 116.253C168.754 116.213 171.423 115.169 173.491 113.313C168.454 114.435 163.251 114.604 158.152 113.811Z" fill="black"/>
</g>
<g opacity="0.3">
<path d="M148.701 179.054C153.457 176.874 159.175 178.549 164.375 178.018C167.389 177.708 170.302 176.767 173.282 176.228C176.263 175.69 179.458 175.596 182.196 176.901C182.652 177.173 183.162 177.343 183.69 177.399C184.214 177.399 184.786 176.995 184.746 176.464C184.7 176.281 184.617 176.11 184.501 175.962C184.385 175.814 184.239 175.691 184.073 175.603C182.059 174.281 179.678 173.628 177.272 173.739C174.883 173.855 172.504 174.136 170.154 174.58C166.131 175.174 162.062 175.399 157.998 175.253C156.138 175.072 154.263 175.137 152.421 175.448C150.598 175.865 148.822 176.962 148.115 178.697" fill="black"/>
</g>
<path d="M190.108 117.497C190.108 117.497 213.936 144.339 213.922 150.057C213.922 154.329 204.43 170.805 198.887 174.565L194.258 178.655L188.944 172.177L193.424 168.551C193.424 168.551 193.236 164.414 194.373 163.256C195.51 162.099 201.517 152.634 201.517 152.634C201.017 152.458 200.575 152.149 200.239 151.739C199.876 151.174 187.618 138.809 187.618 138.809L188.231 129.916L190.108 117.497Z" fill="#1162DC"/>
<path d="M201.517 152.635C201.926 152.651 202.329 152.728 202.715 152.864C203.659 153.127 204.582 153.464 205.473 153.873C206.387 154.266 207.218 154.83 207.922 155.535C208.453 156.113 208.5 156.645 208.46 156.638C208.256 156.3 208.015 155.986 207.74 155.703C207.015 155.081 206.201 154.57 205.325 154.189C203.273 153.248 201.483 152.75 201.517 152.635Z" fill="#263238"/>
<path d="M193.586 168.584C194.207 169.77 194.906 170.914 195.678 172.008C196.541 173.034 197.474 173.998 198.47 174.894C197.242 174.262 196.189 173.338 195.402 172.204C194.522 171.156 193.899 169.916 193.586 168.584Z" fill="#263238"/>
<path d="M192.57 171.358C192.57 171.432 192.233 171.109 191.749 171.23C191.612 171.283 191.487 171.363 191.38 171.464C191.274 171.566 191.189 171.687 191.13 171.822C191.04 171.963 191.001 172.131 191.019 172.297C191.037 172.463 191.112 172.619 191.231 172.737C191.35 172.856 191.503 172.936 191.669 172.966C191.835 172.996 192.006 172.975 192.159 172.905C192.282 172.833 192.388 172.736 192.471 172.62C192.553 172.504 192.61 172.372 192.637 172.232C192.666 171.943 192.644 171.652 192.57 171.371C192.57 171.337 192.926 171.627 192.879 172.273C192.866 172.461 192.808 172.644 192.71 172.806C192.612 172.967 192.476 173.103 192.314 173.201C192.099 173.318 191.851 173.362 191.609 173.327C191.366 173.291 191.142 173.179 190.969 173.006C190.778 172.832 190.665 172.59 190.652 172.333C190.647 172.097 190.708 171.864 190.827 171.66C190.914 171.496 191.033 171.352 191.178 171.236C191.322 171.12 191.489 171.036 191.668 170.988C191.793 170.965 191.921 170.968 192.044 170.999C192.166 171.029 192.282 171.085 192.381 171.163C192.529 171.263 192.583 171.358 192.57 171.358Z" fill="#263238"/>
<path d="M194.258 178.656C194.258 178.656 191.944 181.737 189.805 180.116C189.805 180.116 186.811 179.484 185.27 177.896C183.73 176.309 183.488 175.34 182.398 175.266C181.034 175.039 179.686 174.727 178.361 174.331C178.212 174.292 178.074 174.218 177.959 174.115C177.845 174.011 177.757 173.882 177.703 173.737C177.649 173.592 177.632 173.436 177.652 173.283C177.671 173.13 177.728 172.984 177.817 172.857C177.937 172.708 178.098 172.596 178.281 172.534C179.256 172.205 183.595 172.615 183.595 172.615L184.86 172.689L185.082 170.832L186.555 169.648C186.555 169.648 187.49 170.22 187.443 170.994C187.62 170.971 187.8 170.984 187.972 171.032C188.144 171.079 188.304 171.16 188.445 171.271C188.585 171.381 188.702 171.518 188.789 171.674C188.875 171.829 188.93 172.001 188.95 172.178L194.258 178.656Z" fill="#FFBE9D"/>
<path d="M139.222 179.692C139.222 179.692 141.691 182.759 143.998 181.131C143.998 181.131 147.221 180.459 148.882 178.891C150.544 177.324 150.813 176.321 151.977 176.247C153.141 176.173 156.498 175.696 156.558 175.722C156.619 175.749 157.473 173.825 156.424 173.496C155.374 173.166 150.719 173.603 150.719 173.603L149.373 173.684L149.145 171.821L148.768 170.563C148.768 170.563 146.561 171.235 146.602 171.996C146.231 171.952 145.857 172.05 145.556 172.271C145.255 172.492 145.049 172.819 144.98 173.186L139.222 179.692Z" fill="#FFBE9D"/>
<g opacity="0.3">
<path d="M160.588 158.689C160.621 156.361 162.364 154.397 164.281 153.072C166.198 151.746 168.392 150.818 170.127 149.264C173.551 146.203 174.594 141.339 176.908 137.37C177.272 136.744 178.012 136.058 178.61 136.475C179.027 136.764 178.987 137.39 178.886 137.888C177.875 142.723 175.631 147.214 172.373 150.927C169.116 154.639 164.954 157.448 160.292 159.079" fill="black"/>
</g>
<path d="M189.179 123.666C189.273 123.666 188.587 133.084 187.645 144.716C186.703 156.347 185.856 165.752 185.762 165.746C185.667 165.739 186.354 156.327 187.295 144.689C188.237 133.051 189.085 123.652 189.179 123.666Z" fill="#263238"/>
<g opacity="0.3">
<path d="M190.592 141.755C190.812 140.847 190.796 139.897 190.545 138.997C189.993 136.207 189.35 133.44 188.614 130.695C188.614 132.135 188.271 134.274 188.231 135.976C188.231 136.979 188.042 139.232 188.042 139.232L190.592 141.755Z" fill="black"/>
</g>
<g opacity="0.3">
<path d="M201.403 152.595C203.047 152.28 204.726 152.19 206.394 152.326C206.815 152.345 207.229 152.427 207.626 152.568C208.024 152.716 208.35 153.012 208.534 153.395C208.615 153.612 208.652 153.842 208.643 154.074C208.634 154.305 208.578 154.532 208.48 154.741C208.415 154.95 208.294 155.138 208.131 155.284C207.967 155.429 207.767 155.528 207.552 155.568C207.101 155.568 206.731 155.232 206.394 154.896C205.824 154.387 205.159 153.996 204.437 153.745C203.401 153.382 202.203 153.281 201.416 152.521" fill="black"/>
</g>
<path d="M209.334 152.393C207.972 152.207 206.599 152.11 205.224 152.104C203.853 152.22 202.491 152.427 201.147 152.723C203.728 151.545 206.667 151.427 209.334 152.393Z" fill="#263238"/>
<g opacity="0.3">
<path d="M131.6 153.731C130.231 153.356 128.812 153.202 127.395 153.273C126.792 153.223 126.186 153.325 125.632 153.569C125.37 153.652 125.147 153.827 125.005 154.062C124.863 154.298 124.812 154.577 124.86 154.847C124.909 155.117 125.054 155.361 125.27 155.532C125.485 155.703 125.755 155.789 126.029 155.776C126.487 155.781 126.943 155.706 127.375 155.554L130.739 154.578C130.974 154.529 131.193 154.423 131.378 154.269C131.473 154.187 131.533 154.071 131.545 153.946C131.558 153.821 131.522 153.695 131.445 153.596" fill="black"/>
</g>
<g opacity="0.3">
<path d="M144.22 137.894C143.968 135.453 143.263 133.08 142.141 130.897C142.02 130.662 141.852 130.406 141.596 130.379C141.193 130.346 140.998 130.864 140.964 131.268C140.704 134.174 141.434 137.083 143.036 139.522C143.224 139.805 143.547 140.114 143.85 139.953C144.153 139.791 144.099 139.495 144.079 139.219C144.012 138.291 143.938 137.362 143.87 136.434" fill="black"/>
</g>
<path d="M161.368 114.067C161.305 113.883 161.273 113.689 161.274 113.495C161.199 112.57 161.284 111.64 161.523 110.743C161.559 110.554 161.622 110.37 161.711 110.198C161.752 110.198 161.516 111.053 161.422 112.123C161.328 113.192 161.409 114.06 161.368 114.067Z" fill="#FAFAFA"/>
<path d="M171.957 113.105C171.91 113.105 171.782 112.304 171.493 111.342C171.204 110.38 170.887 109.633 170.928 109.613C171.036 109.757 171.122 109.915 171.183 110.084C171.531 110.88 171.778 111.716 171.917 112.573C171.953 112.748 171.966 112.926 171.957 113.105Z" fill="#FAFAFA"/>
<path d="M157.904 169.27C157.904 169.27 157.904 169.075 157.836 168.719C157.769 168.362 157.729 167.79 157.661 167.131C157.507 165.718 157.291 163.767 156.989 161.305C156.451 156.381 155.677 149.586 154.769 142.085C153.861 134.584 152.966 127.803 152.307 122.899C151.977 120.47 151.714 118.492 151.519 117.086C151.432 116.414 151.365 115.902 151.311 115.505C151.257 115.108 151.25 114.954 151.25 114.954C151.25 114.954 151.284 115.142 151.338 115.505C151.392 115.869 151.479 116.42 151.573 117.08L152.407 122.885C153.08 127.79 153.988 134.571 154.903 142.072C155.818 149.573 156.572 156.367 157.09 161.292C157.339 163.727 157.534 165.712 157.682 167.124C157.742 167.797 157.789 168.315 157.83 168.712C157.87 169.109 157.904 169.27 157.904 169.27Z" fill="#FAFAFA"/>
<path d="M160.635 174.895C160.635 174.895 160.588 174.828 160.527 174.7C160.449 174.514 160.382 174.323 160.325 174.128C160.136 173.473 160.05 172.792 160.07 172.11C160.085 171.438 160.205 170.773 160.426 170.139C160.493 169.946 160.571 169.757 160.662 169.574C160.729 169.446 160.769 169.379 160.776 169.385C160.783 169.392 160.669 169.681 160.521 170.166C160.133 171.435 160.098 172.787 160.42 174.074C160.541 174.592 160.655 174.888 160.635 174.895Z" fill="#FAFAFA"/>
<path d="M158.839 180.163C158.68 179.985 158.551 179.783 158.455 179.564C157.934 178.523 157.701 177.362 157.783 176.2C157.787 175.971 157.828 175.744 157.904 175.528C157.904 175.528 157.904 175.803 157.904 176.234C157.883 177.367 158.112 178.49 158.576 179.524C158.724 179.921 158.852 180.156 158.839 180.163Z" fill="#FAFAFA"/>
<path d="M174.621 180.027C174.524 179.73 174.445 179.426 174.386 179.119C174.258 178.554 174.069 177.774 173.847 176.926C173.625 176.078 173.403 175.311 173.235 174.753C173.134 174.459 173.055 174.158 173 173.852C173.041 173.924 173.075 174.001 173.101 174.08C173.161 174.228 173.242 174.45 173.336 174.753C173.518 175.298 173.753 176.065 174.009 176.919C174.265 177.774 174.406 178.554 174.513 179.126C174.567 179.408 174.608 179.644 174.628 179.799C174.636 179.875 174.634 179.952 174.621 180.027Z" fill="#FAFAFA"/>
<path d="M178.994 167.63C179.103 167.842 179.18 168.068 179.223 168.303C179.349 168.874 179.39 169.461 179.344 170.045C179.292 170.629 179.156 171.202 178.94 171.747C178.854 171.973 178.741 172.187 178.604 172.386C178.91 171.632 179.111 170.84 179.202 170.032C179.247 169.461 179.223 168.887 179.128 168.323C179.054 167.899 178.974 167.637 178.994 167.63Z" fill="#FAFAFA"/>
<path d="M175.368 147.064C175.368 147.064 175.368 147.138 175.368 147.28C175.368 147.421 175.368 147.67 175.334 147.899C175.301 148.511 175.26 149.244 175.213 150.172C175.119 152.097 175.045 154.754 175.085 157.687C175.126 160.62 175.274 163.277 175.415 165.195C175.489 166.103 175.549 166.863 175.597 167.469C175.597 167.704 175.63 167.906 175.65 168.087C175.656 168.159 175.656 168.231 175.65 168.303C175.629 168.233 175.615 168.161 175.61 168.087L175.536 167.475C175.475 166.937 175.395 166.13 175.307 165.208C175.139 163.291 174.978 160.634 174.937 157.694C174.897 154.754 174.991 152.09 175.105 150.172C175.166 149.21 175.227 148.43 175.274 147.899C175.274 147.663 175.314 147.461 175.334 147.28C175.336 147.207 175.347 147.134 175.368 147.064Z" fill="#FAFAFA"/>
<path d="M177.534 113.011C177.574 113.011 177.332 119.873 176.996 128.336C176.659 136.799 176.323 143.654 176.323 143.654C176.323 143.654 176.525 136.792 176.861 128.329C177.198 119.866 177.494 113.011 177.534 113.011Z" fill="#FAFAFA"/>
<path d="M188.997 126.681C188.997 126.721 178.799 127.266 166.219 127.898C153.638 128.531 143.433 129.008 143.433 128.968C143.433 128.927 153.625 128.389 166.212 127.757C178.799 127.125 188.991 126.647 188.997 126.681Z" fill="#FAFAFA"/>
<path d="M169.959 151.847C169.888 151.875 169.813 151.893 169.737 151.901L169.064 152.022C168.506 152.123 167.719 152.258 166.69 152.406C164.671 152.702 161.886 153.078 158.792 153.26C155.697 153.442 152.885 153.529 150.853 153.516C149.837 153.516 149.017 153.516 148.445 153.469H147.772H147.543C147.62 153.463 147.696 153.463 147.772 153.469H150.833C152.851 153.469 155.67 153.388 158.765 153.173C161.859 152.957 164.644 152.634 166.656 152.359L169.037 152.022L169.71 151.928L169.959 151.847Z" fill="#FAFAFA"/>
<path d="M186.602 146.594C186.602 146.627 184.039 146.869 180.864 147.125C177.689 147.381 175.119 147.562 175.112 147.529C175.105 147.495 177.682 147.246 180.857 146.99C184.033 146.735 186.602 146.553 186.602 146.594Z" fill="#FAFAFA"/>
<path d="M187.053 168.76C187.053 168.76 184.981 169.378 181.564 170.105C177.11 171.055 172.597 171.698 168.055 172.029C163.513 172.338 158.954 172.338 154.412 172.029C150.927 171.78 148.788 171.45 148.788 171.45H149.178L150.302 171.565C151.27 171.672 152.676 171.787 154.419 171.901C158.958 172.184 163.511 172.171 168.048 171.861C172.583 171.541 177.091 170.923 181.543 170.011C183.252 169.661 184.631 169.338 185.58 169.103L186.67 168.84L187.053 168.76Z" fill="#FAFAFA"/>
<path d="M205.399 136.636C205.399 136.636 205.365 136.677 205.291 136.73L204.955 136.979C204.665 137.188 204.242 137.497 203.737 137.894C202.41 138.93 201.154 140.054 199.976 141.258C198.801 142.45 197.704 143.718 196.694 145.052C196.303 145.57 196.021 145.994 195.799 146.29L195.563 146.633L195.469 146.747C195.469 146.747 195.469 146.7 195.536 146.62L195.752 146.263C195.947 145.954 196.236 145.523 196.613 144.998C197.592 143.629 198.676 142.338 199.855 141.137C201.039 139.937 202.309 138.826 203.656 137.814C204.174 137.43 204.598 137.141 204.908 136.932L205.257 136.71L205.399 136.636Z" fill="#FAFAFA"/>
<path d="M206.879 151.847C206.816 151.78 206.757 151.708 206.704 151.632L206.219 151L204.464 148.659C202.97 146.681 200.885 143.949 198.51 141.037C196.135 138.124 193.929 135.493 192.307 133.636L190.39 131.423L189.865 130.818L189.69 130.602C189.69 130.602 189.764 130.67 189.885 130.798L190.43 131.383L192.381 133.569C194.023 135.426 196.243 138.023 198.618 140.969C200.992 143.916 203.071 146.627 204.544 148.618L206.267 150.986L206.724 151.659C206.832 151.773 206.879 151.847 206.879 151.847Z" fill="#FAFAFA"/>
<path d="M209.193 152.52C209.281 153.093 209.17 153.679 208.877 154.18C208.584 154.681 208.128 155.066 207.585 155.271C208.058 154.976 208.458 154.578 208.756 154.107C209.015 153.616 209.165 153.074 209.193 152.52Z" fill="#FAFAFA"/>
<path d="M193.727 169.406C193.75 169.347 193.779 169.291 193.814 169.238C193.902 169.103 193.996 168.949 194.097 168.78C194.393 168.323 194.769 167.765 195.16 167.112C196.068 165.713 197.346 163.789 198.786 161.69C200.225 159.591 201.564 157.707 202.546 156.355L203.724 154.761L204.047 154.337C204.083 154.285 204.124 154.235 204.168 154.189C204.168 154.189 204.168 154.249 204.073 154.35L203.764 154.794L202.627 156.409C201.625 157.855 200.333 159.712 198.9 161.791C197.467 163.87 196.209 165.74 195.247 167.173L194.144 168.814L193.841 169.258C193.807 169.311 193.769 169.36 193.727 169.406Z" fill="#FAFAFA"/>
<path d="M196.303 172.898C195.691 173.484 195.044 174.032 194.366 174.54C193.722 175.087 193.048 175.599 192.348 176.073C192.964 175.492 193.61 174.944 194.285 174.432C195.348 173.557 196.283 172.871 196.303 172.898Z" fill="#FAFAFA"/>
<path d="M205.587 167.233C205.433 167.186 205.282 167.127 205.136 167.058C204.726 166.895 204.329 166.704 203.946 166.486C202.671 165.785 201.51 164.896 200.501 163.849C199.491 162.801 198.643 161.608 197.985 160.31C197.783 159.918 197.605 159.514 197.454 159.099C197.387 158.953 197.337 158.799 197.306 158.642C197.381 158.783 197.449 158.929 197.508 159.079C197.622 159.368 197.817 159.752 198.073 160.263C198.748 161.54 199.599 162.715 200.602 163.755C201.597 164.786 202.728 165.676 203.966 166.398C204.45 166.674 204.847 166.883 205.13 167.011C205.289 167.07 205.442 167.145 205.587 167.233Z" fill="#FAFAFA"/>
<path d="M141.919 129.996L141.684 130.259L141.011 130.999L138.455 133.69L129.978 142.597L127.556 145.126C126.776 145.947 126.009 146.721 125.35 147.521C124.004 149.082 123.116 150.845 123.164 152.425C123.151 153.042 123.264 153.654 123.495 154.225C123.726 154.797 124.071 155.315 124.509 155.749C124.844 156.047 125.235 156.275 125.659 156.422L125.33 156.314C125.013 156.183 124.722 155.999 124.469 155.769C124.014 155.336 123.654 154.814 123.411 154.235C123.168 153.656 123.047 153.033 123.056 152.405C122.989 150.791 123.89 148.995 125.236 147.414C125.908 146.613 126.668 145.833 127.449 145.012L129.864 142.476L138.367 133.602C139.43 132.499 140.305 131.584 140.957 130.911L141.63 130.185C141.825 130.077 141.919 129.996 141.919 129.996Z" fill="#FAFAFA"/>
<path d="M140.278 144.576L140.184 144.448C140.123 144.32 140.049 144.185 139.975 144.037C139.8 143.681 139.531 143.163 139.195 142.531C137.44 139.23 135.287 136.157 132.784 133.381C132.306 132.85 131.909 132.426 131.627 132.144L131.31 131.807C131.27 131.768 131.234 131.726 131.203 131.679L131.331 131.787L131.667 132.103C131.956 132.379 132.34 132.776 132.858 133.314C134.135 134.687 135.319 136.143 136.403 137.673C137.48 139.205 138.453 140.808 139.316 142.47C139.646 143.109 139.895 143.634 140.056 144.004L140.244 144.428C140.263 144.475 140.274 144.525 140.278 144.576Z" fill="#FAFAFA"/>
<path d="M131.963 152.789L131.822 152.829L131.418 152.91C131.061 152.984 130.55 153.071 129.911 153.152C128.245 153.36 126.563 153.423 124.886 153.34C123.208 153.263 121.539 153.038 119.901 152.668C119.275 152.52 118.771 152.385 118.427 152.277L118.031 152.15C117.983 152.14 117.937 152.122 117.896 152.096H118.037L118.441 152.197C118.791 152.291 119.295 152.412 119.921 152.547C121.558 152.9 123.22 153.125 124.892 153.219C126.562 153.302 128.236 153.253 129.898 153.071C130.537 153.004 131.055 152.937 131.405 152.876L131.815 152.822C131.862 152.804 131.912 152.792 131.963 152.789Z" fill="#FAFAFA"/>
<path d="M136.504 161.266C136.377 161.36 136.245 161.445 136.107 161.522C135.845 161.67 135.468 161.905 135.017 162.195C133.825 162.97 132.7 163.843 131.653 164.805C130.617 165.771 129.661 166.819 128.794 167.94C128.465 168.37 128.202 168.727 128.034 168.976C127.949 169.11 127.853 169.236 127.745 169.353C127.817 169.211 127.898 169.074 127.987 168.942C128.148 168.687 128.397 168.323 128.72 167.879C129.564 166.734 130.515 165.67 131.559 164.704C132.597 163.738 133.724 162.871 134.923 162.114C135.387 161.825 135.771 161.603 136.04 161.441C136.188 161.366 136.343 161.308 136.504 161.266Z" fill="#FAFAFA"/>
<path d="M139.195 170.839C139.195 170.839 136.746 167.321 133.813 162.928C130.88 158.535 128.498 154.949 128.532 154.929C128.566 154.909 130.981 158.454 133.914 162.847C136.847 167.24 139.228 170.819 139.195 170.839Z" fill="#FAFAFA"/>
<path d="M140.661 177.458C140.007 177.033 139.378 176.571 138.778 176.073C138.148 175.613 137.548 175.114 136.982 174.579C137.634 175.006 138.263 175.469 138.865 175.965C139.495 176.424 140.095 176.923 140.661 177.458Z" fill="#FAFAFA"/>
</svg>
