<svg width="72" height="73" viewBox="0 0 72 73" fill="none" xmlns="http://www.w3.org/2000/svg">
<path opacity="0.4" d="M49.0209 6.19775H23.0109C12.8409 6.19775 6.00085 13.3378 6.00085 23.9578V48.4678C6.00085 59.0578 12.8409 66.1977 23.0109 66.1977H49.0209C59.1909 66.1977 66.0009 59.0578 66.0009 48.4678V23.9578C66.0009 13.3378 59.1909 6.19775 49.0209 6.19775" fill="#407BFF"/>
<path d="M32.4402 45.9421C31.7682 45.9421 31.0962 45.6871 30.5832 45.1741L23.4642 38.0551C22.4382 37.0291 22.4382 35.3671 23.4642 34.3441C24.4902 33.3181 26.1492 33.3151 27.1752 34.3411L32.4402 39.6061L44.8242 27.2221C45.8502 26.1961 47.5092 26.1961 48.5352 27.2221C49.5612 28.2481 49.5612 29.9101 48.5352 30.9361L34.2972 45.1741C33.7842 45.6871 33.1122 45.9421 32.4402 45.9421" fill="#407BFF"/>
</svg>
