<svg width="28" height="30" viewBox="0 0 28 30" fill="none" xmlns="http://www.w3.org/2000/svg">
<path fill-rule="evenodd" clip-rule="evenodd" d="M10.2096 26.6952V22.6062C10.2096 21.5661 11.0575 20.7211 12.108 20.7141H15.9561C17.0117 20.7141 17.8673 21.5612 17.8673 22.6062V26.7079C17.8671 27.5909 18.579 28.3126 19.4707 28.3333H22.0361C24.5935 28.3333 26.6667 26.2809 26.6667 23.7491V12.1171C26.653 11.1211 26.1806 10.1858 25.384 9.57734L16.6103 2.58036C15.0733 1.36205 12.8883 1.36205 11.3512 2.58036L2.61604 9.59003C1.81635 10.196 1.34319 11.1328 1.33334 12.1298V23.7491C1.33334 26.2809 3.40651 28.3333 5.96389 28.3333H8.52929C9.44315 28.3333 10.184 27.5999 10.184 26.6952" fill="white"/>
<path d="M10.2096 26.6952V22.6062C10.2096 21.5661 11.0575 20.7211 12.108 20.7141H15.9561C17.0117 20.7141 17.8674 21.5612 17.8674 22.6062V22.6062V26.7079C17.8671 27.5909 18.579 28.3126 19.4707 28.3333H22.0361C24.5935 28.3333 26.6667 26.2809 26.6667 23.7491V23.7491V12.1171C26.653 11.1211 26.1806 10.1858 25.384 9.57734L16.6103 2.58036C15.0733 1.36205 12.8883 1.36205 11.3512 2.58036L2.61604 9.59003C1.81635 10.196 1.34319 11.1328 1.33334 12.1298V23.7491C1.33334 26.2809 3.40651 28.3333 5.96389 28.3333H8.52929C9.44315 28.3333 10.184 27.5999 10.184 26.6952V26.6952" stroke="white" stroke-width="1.5" stroke-linecap="round" stroke-linejoin="round"/>
</svg>
