<svg width="20" height="20" viewBox="0 0 20 20" fill="none" xmlns="http://www.w3.org/2000/svg">
<path fill-rule="evenodd" clip-rule="evenodd" d="M6.59984 1.66663H13.4082C16.3498 1.66663 18.3332 3.55913 18.3332 6.38329V13.6083C18.3332 16.4333 16.3498 18.3333 13.4082 18.3333H6.59984C3.64984 18.3333 1.6665 16.4333 1.6665 13.6083V6.38329C1.6665 3.55913 3.64984 1.66663 6.59984 1.66663ZM8.10817 10.625H13.3998C13.7498 10.625 14.0248 10.3416 14.0248 9.99996C14.0248 9.64996 13.7498 9.37496 13.3998 9.37496H8.10817L10.1748 7.31663C10.2915 7.19996 10.3582 7.03329 10.3582 6.87496C10.3582 6.71746 10.2915 6.55829 10.1748 6.43329C9.93317 6.19163 9.53317 6.19163 9.2915 6.43329L6.14984 9.55829C5.9165 9.79163 5.9165 10.2083 6.14984 10.4416L9.2915 13.5666C9.53317 13.8083 9.93317 13.8083 10.1748 13.5666C10.4165 13.3166 10.4165 12.925 10.1748 12.675L8.10817 10.625Z" fill="#407BFF"/>
</svg>
