<svg width="21" height="21" viewBox="0 0 21 21" fill="none" xmlns="http://www.w3.org/2000/svg">
<path fill-rule="evenodd" clip-rule="evenodd" d="M13.7219 3.22108L13.7227 3.84577C16.0182 4.02568 17.5346 5.5899 17.5371 7.9887L17.5461 15.0102C17.5494 17.6255 15.9063 19.2347 13.2726 19.2389L6.83939 19.2472C4.22214 19.2506 2.5585 17.603 2.55521 14.9802L2.54615 8.04117C2.54286 5.62654 4.00575 4.06649 6.30129 3.85577L6.30047 3.23108C6.29965 2.86459 6.57116 2.5889 6.93318 2.5889C7.2952 2.58807 7.56672 2.86293 7.56754 3.22941L7.56836 3.81245L12.4556 3.80579L12.4548 3.22275C12.454 2.85627 12.7255 2.5814 13.0875 2.58057C13.4413 2.57974 13.7211 2.8546 13.7219 3.22108ZM3.81402 8.29841L16.2708 8.28176V7.99023C16.2354 6.19946 15.337 5.25994 13.7243 5.12001L13.7252 5.76135C13.7252 6.1195 13.4462 6.40353 13.0924 6.40353C12.7304 6.40436 12.4581 6.12117 12.4581 5.76302L12.4573 5.08835L7.56998 5.09502L7.57081 5.76885C7.57081 6.12783 7.30011 6.41103 6.93809 6.41103C6.57607 6.41186 6.30373 6.1295 6.30373 5.77051L6.30291 5.12917C4.6985 5.28992 3.81073 6.23278 3.8132 8.03938L3.81402 8.29841ZM12.746 12.084V12.0932C12.7543 12.4763 13.0669 12.767 13.4462 12.7587C13.8165 12.7495 14.1119 12.4322 14.1036 12.0491C14.0863 11.6826 13.7893 11.3836 13.4199 11.3844C13.0414 11.3927 12.7452 11.7009 12.746 12.084ZM13.4257 15.8238C13.0472 15.8155 12.742 15.4998 12.7411 15.1167C12.7329 14.7336 13.0365 14.4162 13.415 14.4071H13.4232C13.8099 14.4071 14.1234 14.7227 14.1234 15.1142C14.1242 15.5057 13.8116 15.823 13.4257 15.8238ZM9.35626 12.0974C9.37271 12.4805 9.68619 12.7795 10.0647 12.7629C10.4349 12.7454 10.7303 12.4289 10.7138 12.0457C10.7048 11.6709 10.4004 11.3794 10.0301 11.3802C9.65163 11.3969 9.35544 11.7142 9.35626 12.0974ZM10.0679 15.7864C9.68947 15.8031 9.37682 15.504 9.35954 15.1209C9.35954 14.7378 9.65492 14.4213 10.0334 14.4038C10.4036 14.4029 10.7089 14.6945 10.7171 15.0684C10.7344 15.4524 10.4382 15.7689 10.0679 15.7864ZM5.96642 12.1265C5.98288 12.5097 6.29635 12.8095 6.67483 12.792C7.04508 12.7754 7.34045 12.458 7.32317 12.0749C7.31495 11.7001 7.01052 11.4085 6.63945 11.4094C6.26097 11.426 5.9656 11.7434 5.96642 12.1265ZM6.67813 15.7906C6.29966 15.8081 5.987 15.5083 5.96973 15.1251C5.9689 14.742 6.2651 14.4246 6.64358 14.408C7.01383 14.4071 7.31907 14.6987 7.3273 15.0735C7.34458 15.4566 7.0492 15.774 6.67813 15.7906Z" fill="#0548C9"/>
</svg>
