<svg width="26" height="28" viewBox="0 0 26 28" fill="none" xmlns="http://www.w3.org/2000/svg">
<path fill-rule="evenodd" clip-rule="evenodd" d="M13.1519 0.666748H6.43281C3.07327 0.666748 0.333324 3.33341 0.333324 6.58675V21.4134C0.333324 24.6801 3.07327 27.3334 6.46034 27.3334H13.1656C16.5252 27.3334 19.2789 24.6801 19.2789 21.4267V15.0267H10.7424L12.9453 17.1601C13.3584 17.5601 13.3584 18.2134 12.9453 18.6134C12.7388 18.8134 12.4634 18.9067 12.1881 18.9067C11.9265 18.9067 11.6511 18.8134 11.4446 18.6134L7.42414 14.7334C7.21762 14.5467 7.10747 14.2801 7.10747 14.0001C7.10747 13.7334 7.21762 13.4667 7.42414 13.2801L11.4446 9.40008C11.8576 9.00008 12.5323 9.00008 12.9453 9.40008C13.3584 9.80008 13.3584 10.4534 12.9453 10.8534L10.7424 12.9734H19.2789V6.60008C19.2789 3.33341 16.5252 0.666748 13.1519 0.666748ZM25.6667 13.9999C25.6667 13.4399 25.193 12.9733 24.6247 12.9733H19.2793V15.0266H24.6247C25.193 15.0266 25.6667 14.5733 25.6667 13.9999Z" fill="#4C92FB"/>
</svg>
