<svg width="20" height="20" viewBox="0 0 20 20" fill="none" xmlns="http://www.w3.org/2000/svg">
<path fill-rule="evenodd" clip-rule="evenodd" d="M10.1277 13.8666L12.4957 11.475C12.735 11.225 12.735 10.8333 12.4875 10.5916C12.2482 10.35 11.8604 10.35 11.6211 10.5916L10.3092 11.925V7.90829C10.3092 7.55829 10.037 7.28329 9.69868 7.28329C9.3604 7.28329 9.07987 7.55829 9.07987 7.90829V11.925L7.76799 10.5916C7.52872 10.35 7.14093 10.35 6.90165 10.5916C6.66238 10.8333 6.66238 11.225 6.90165 11.475L9.26139 13.8666C9.31914 13.925 9.38515 13.9666 9.45941 14C9.53367 14.0333 9.61617 14.05 9.69868 14.05C9.78119 14.05 9.85545 14.0333 9.92971 14C10.004 13.9666 10.07 13.925 10.1277 13.8666ZM16.1066 7.5213C16.3006 7.51906 16.5118 7.51663 16.7036 7.51663C16.9182 7.51663 17.0832 7.68329 17.0832 7.89163V14.5916C17.0832 16.6583 15.4165 18.3333 13.3703 18.3333H6.81089C4.65743 18.3333 2.9165 16.575 2.9165 14.4083V5.42496C2.9165 3.35829 4.57492 1.66663 6.63763 1.66663H11.0436C11.2498 1.66663 11.4231 1.84163 11.4231 2.04996V4.73329C11.4231 6.25829 12.6607 7.50829 14.1789 7.51663C14.5276 7.51663 14.8396 7.51927 15.112 7.52158C15.323 7.52337 15.5102 7.52496 15.6723 7.52496C15.7897 7.52496 15.942 7.5232 16.1066 7.5213ZM16.3369 6.30504C15.6595 6.30754 14.86 6.30504 14.2849 6.29921C13.3724 6.29921 12.6207 5.54004 12.6207 4.61838V2.42171C12.6207 2.06254 13.0522 1.88421 13.2981 2.14338C13.9338 2.81034 14.9071 3.83266 15.7295 4.69644C16.062 5.04572 16.3698 5.36908 16.6207 5.63254C16.8616 5.88504 16.6851 6.30421 16.3369 6.30504Z" fill="#083A9A"/>
</svg>
