<svg width="60" height="60" viewBox="0 0 60 60" fill="none" xmlns="http://www.w3.org/2000/svg">
<path fill-rule="evenodd" clip-rule="evenodd" d="M19.1752 4.99976H40.8502C49.3252 4.99976 55.0002 10.9498 55.0002 19.7998V40.2273C55.0002 49.0498 49.3252 54.9998 40.8502 54.9998H19.1752C10.7002 54.9998 5.00024 49.0498 5.00024 40.2273V19.7998C5.00024 10.9498 10.7002 4.99976 19.1752 4.99976ZM28.5752 37.4748L40.4502 25.5998C41.3002 24.7498 41.3002 23.3748 40.4502 22.4998C39.6002 21.6498 38.2002 21.6498 37.3502 22.4998L27.0252 32.8248L22.6502 28.4498C21.8002 27.5998 20.4002 27.5998 19.5502 28.4498C18.7002 29.2998 18.7002 30.6748 19.5502 31.5498L25.5002 37.4748C25.9252 37.8998 26.4752 38.0998 27.0252 38.0998C27.6002 38.0998 28.1502 37.8998 28.5752 37.4748Z" fill="#0CBC8B"/>
</svg>
